<svg xmlns="http://www.w3.org/2000/svg" viewBox="0 0 348.91 642.11"><defs><style>.cls-1{fill:#1d1d1b;}</style></defs><title>Middel 1</title><g id="Laag_2" data-name="Laag 2"><g id="Default"><path class="cls-1" d="M261.24,580.21c-1.15.56-2.77-.27-4.22.19a2.39,2.39,0,0,0-1.24.84c-.81,1.27,1.81,2.89,4.09,3.45a6.29,6.29,0,0,0,7.41-3.25,8.81,8.81,0,0,0-.06-8c-1.18-2-3.4-3.13-5-5.46-.74-1.08-1.36-2.44-2.4-2.47a2.62,2.62,0,0,0-2,1.17c-.92,1.44.62,3.23,2,4.81,1.81,2,3.38,3.75,3,6A3.72,3.72,0,0,1,261.24,580.21Z"/><path class="cls-1" d="M346.89,486.58c-1-10.08-2.31-20.11-4-30-1.24-7-2.73-14-3.54-21.25-.48-4.24-.73-8.55-2.2-12.47-1.26-3.39-3.44-6.49-4.55-10-.19-.61-.36-1.23-.51-1.85-1.9-7.88-2.07-16-2.86-24.12a219.23,219.23,0,0,0-6.24-33.22A172.91,172.91,0,0,0,317,334.63c-.75-2-1.57-3.9-2.19-5.9-.5-1.63-.89-3.3-1.52-4.89a46.33,46.33,0,0,0-2.36-4.73c-2.94-5.59-4.28-10.55-8.43-17.54-4.59-7.73-12.63-18-13.83-16.52-1,1.22,2.91,10.9,6.41,17.2,2.12,3.82,4.09,6.4,5.9,9.44s3.42,6.44,6.07,9.11a21.09,21.09,0,0,1,3,3.2c1.68,2.7.71,6.55.51,10.12-.35,6.09,1.52,11.4,2.69,17A40.49,40.49,0,0,0,314.5,356c.76,2.15,2,4.12,2.87,6.24a32,32,0,0,1,1.86,8.43,128.29,128.29,0,0,1,.33,23.27,53.37,53.37,0,0,0-.16,9.45c.37,3.42,1.52,6.74,2.36,10.12a139.74,139.74,0,0,1,2.53,16c.86,6.86,1.94,13.7,2.69,20.57.81,7.29,1.24,14.63,1.86,21.93.36,4.28.79,8.55,1.35,12.82.68,5.17,1.56,10.35,1.85,15.51.51,8.81-.69,17.6-.33,26.65.32,8.08,1.88,16.38-.68,23.78-.8,2.33-2,4.57-2.87,6.91-1.82,5-2,10.59-3.54,15.69-1.43,4.67-4.06,9-4.55,14-.22,2.27,0,4.69-1,6.57a15,15,0,0,1-2.36,2.87c-4.19,4.53-6.6,10.2-7.93,16.19a34.22,34.22,0,0,1-1.35,5.23c-1.22,3-3.68,5.36-6.24,8.1-2.94,3.14-6,6.85-9.61,6.74a11.35,11.35,0,0,1-5.06-1.86,43.9,43.9,0,0,1-11-9.44c-8.7-9.88-15.71-22.21-22.1-32.89-2.39-4-4.7-7.78-6.24-13.49-.47-1.75-.86-3.68-.16-4.55s2.52-.68,4.55-.68c1.75,0,3.65-.15,3.88-.84s-1.8-2.37-3.54-3c-2.09-.79-3.72-.3-5.57-.33a6.87,6.87,0,0,1-3-.68,8.45,8.45,0,0,1-3-3.54c-3.62-6.47-5.21-13.25-7.08-20.07-1.94-7.06-4.2-14.16-5.23-21.42-1.24-8.67-.74-17.56-1.52-26.31a164.64,164.64,0,0,0-2.62-16.75c-1.2-6.14-2.45-12.28-3.11-18.49-.69-6.44-.75-13-1.19-19.4-.81-12-2.94-23.77-4.19-36-1.64-15.91-1.76-32.57-1.81-47.2a202.21,202.21,0,0,1,1.51-29.1c.44-3.52,1-7.39,2.59-7.37,1.4,0,3.59,3.12,4.44,5.78a15.71,15.71,0,0,1,.33,6.24,49.26,49.26,0,0,0,1.33,14.85c0,.13.07.25.1.38.7,2.73,1.64,5.41,2.45,8a100.65,100.65,0,0,1,3.44,14.47c1.17,7.29,1.6,14.94,2.63,22.51A213,213,0,0,0,239,421.65c1.45,5.09,3,10.18,3.37,15.35.2,2.77,0,5.57.17,8.43a14.62,14.62,0,0,0,.67,4.22c1.32,3.6,5.21,5.94,8.27,8.43,2.07,1.69,3.76,3.45,7.25,3.37,2.94-.06,7.16-1.43,6.24-2.52a6,6,0,0,0-2-1c-3.06-1.13-5.26-1.82-7.42-3.88-3.45-3.27-6.79-10-4.22-12.65,1.21-1.24,3.72-1.59,6.07-1.51,1.61,0,3.14.3,4.22-.68a3,3,0,0,0,1-2c0-1.59-2.87-1.87-4.89-2.7a9.13,9.13,0,0,1-4.55-4.38,46.85,46.85,0,0,1-2.87-6.41,81,81,0,0,1-4.89-16.87c-.9-5.92-.71-12-2-17.87-.81-3.6-2.19-7.07-3.2-10.63a79.2,79.2,0,0,1-2.27-12.16c-.55-4.59-.9-9.2-1.64-13.76-.82-5-2.2-10-3.13-15-1.1-5.86-1.59-11.83-2.55-17.74-.71-4.36-1.66-8.68-1.94-13.06-.37-6,.53-12-.12-18-.35-3.25-1.17-6.48-1.69-9.67-1.53-9.34-.54-18.44-1.33-28.66,0-.52-.09-1-.09-1.53a4,4,0,0,1,.33-1.74,4.87,4.87,0,0,1,2.15-1.91c5.71-3.05,14.19-1.46,17.65,3.12a3.93,3.93,0,0,1,.55.92c.5,1.21.15,2.79.57,4s1.55,2.11,2.66,3.14a4.78,4.78,0,0,1,1.56,2.17,4.2,4.2,0,0,1-.15,1.78c-1.38,6.77-.3,13.94,1.15,20.81,1.26,6,2.78,11.73,4.21,17.57s2.82,12,3.76,18.33c1.13,7.61,1.66,15.56,3,23.16.78,4.56,1.83,9,2.71,13.24.93,4.45,1.69,8.68,2.58,13,1.33,6.48,3,13.19,3.35,20.31.2,3.7.06,7.5,1.31,10.86,1.18,3.14,3.58,5.88,5.11,8.94,2.36,4.72,2.66,10.2,4.23,15.23,1,3.19,2.49,6.2,3.63,9.31.71,1.94,1.27,3.91,2.17,5.81a18.21,18.21,0,0,1,1.7,4,7.22,7.22,0,0,1-.37,3.75c-.6,1.75-1.74,3.58-1.2,4.95.36,1,1.51,1.67,2.41,2.54,1.35,1.3,2.15,2.93,3.51,3.87,2.6,1.81,7.25,1.13,9.92-1.08,2.15-1.79,3-4.58,3.35-7.07a12.89,12.89,0,0,0-.41-6.22c-1.06-2.83-3.53-4.5-5.76-7.64-3.07-4.32-5.69-11.44-8-18.44-1.73-5.17-3.31-10.27-5-14.78-1.79-4.82-3.67-9-4.95-13.39-2.42-8.33-2.75-17.69-4.4-26.58-1.46-7.9-4-15.42-6-23.06A150.18,150.18,0,0,1,268.39,316c-.47-4-.74-8-1.58-12s-2.2-7.6-3.14-11.49a95.23,95.23,0,0,1-2.06-15.84c-.19-2.89-.36-5.68-.6-9a5.43,5.43,0,0,1,.12-2.42.93.93,0,0,1,.73-.48,5.58,5.58,0,0,1,2.92.7c2,.94,3.68,2.49,5.31,3.5s3,1.44,4.89,2.63c2.08,1.3,4.72,3.42,5.4,2.93s-.74-3.86-2.36-5.9c-1.41-1.76-3-2.54-3.86-3.75s-1.18-2.75-2.39-4.83c-.61-1-1.46-2.22-1-2.54a2.4,2.4,0,0,1,1.34,0c2.8.54,4.41,2.4,6.54,3.75,3.43,2.19,8.25,3.06,11.93,3.68,2.2.36,4,.64,6,0a11.78,11.78,0,0,0,5.41-4,15.38,15.38,0,0,0,2.56-10.33,7.2,7.2,0,0,0-1.87-4.17c-2-2.38-5.85-5.37-9.57-8a171.72,171.72,0,0,0-16.18-9.8,10.27,10.27,0,0,1-3.63-2.78c-.93-1.24-1.64-3-.72-4.11.52-.62,1.58-1,1.69-1.69a2.17,2.17,0,0,0-.37-1.21c-2.15-4.07-5.66-6.27-9-8.37a77.38,77.38,0,0,0-12.8-7c-2.11-.86-4.45-1.66-5.53-3.34a9.16,9.16,0,0,1-1-4.07c-.45-5.33-.37-10.18-.4-15.11-.08-11.84-.81-24.2-1.39-35.59a73.51,73.51,0,0,0-.82-8.81c-.2-1.26-.48-2.61.06-3.59a5.74,5.74,0,0,1,1.13-1.27,17.81,17.81,0,0,0,4.42-6.18c.36-1,.42-2,.84-2.89a4.41,4.41,0,0,1,1.69-1.93,4,4,0,0,1,1.95-.51,30.26,30.26,0,0,1,5,.62,28.65,28.65,0,0,0,12.35-1.09,27.34,27.34,0,0,0,6.72-3.16,25.43,25.43,0,0,0,5.37-4.55,14.3,14.3,0,0,0,2.7-4.33,16.39,16.39,0,0,0,.37-9.26,24.34,24.34,0,0,0-1.9-5.18A20.25,20.25,0,0,0,280.33,88c-1.47-1.59-3.44-2.9-3.54-2a3.73,3.73,0,0,0,.46,1.55c.66,1.39,1.55,2.34,2.14,3.52a26,26,0,0,1,1.45,4.87c.69,2.58,1.75,4.89,2.06,7.5a9.9,9.9,0,0,1-1.21,6.41A12.09,12.09,0,0,1,278.3,113a10.46,10.46,0,0,1-6.06,2.34,2.78,2.78,0,0,1-2-.47c-.42-.49-.08-1.46.45-2.15.67-.88,1.63-1.34,2.3-2.14a9.56,9.56,0,0,0,1.41-3,18.83,18.83,0,0,0,1.47-6.65c0-4.15-2-9.9-4.55-12.75-1.27-1.4-2.68-2.09-3-3.06a1.55,1.55,0,0,1,.88-1.8c.65-.34,1.65-.42,1.64-.83s-.56-.77-1.2-1a6,6,0,0,0-4.36.62c-3.09,1.5-4.28,4.06-7.16,5.43-2.09,1-5.07,1.35-6.66-.11a2.71,2.71,0,0,1-.94-2.54c.44-1.29,2.9-1.59,4.07-3.43a3.25,3.25,0,0,0,.51-2.7c-.32-.57-1.21-.49-2-.27-3.47.92-6,4.3-8.87,8-2,2.49-4.1,5.13-5.47,4.58a2.12,2.12,0,0,1-.83-.74c-2.36-3.18-3-10.86-2.9-15.19a2.67,2.67,0,0,1,.19-1.16c.45-.88,2-1.34,3.45-1.6a22,22,0,0,1,5-.24,131.14,131.14,0,0,1,13.18,1.82,98.5,98.5,0,0,0,18.86,1.21c2.65-.1,5.38-.31,7.38-1.82a7.88,7.88,0,0,0,2.66-3.87,15.49,15.49,0,0,0,.48-4.47,4.83,4.83,0,0,1,.12-1.21,9.51,9.51,0,0,1,1-1.82c.92-1.66.86-3.73.79-5.68A71.3,71.3,0,0,0,286.83,44a11.78,11.78,0,0,0-2.12-5.3c-1-1.14-2.35-1.93-2.85-3.56a5.88,5.88,0,0,1-.13-2.65,1.36,1.36,0,0,1,1-1.23,3.87,3.87,0,0,1,2.47.43c1.6.8,2.48,2.49,3.75,3.62a12.5,12.5,0,0,0,5.81,2.42c2.07.45,4.2.81,6,.12a7.58,7.58,0,0,0,3.75-3.38,10.67,10.67,0,0,0,1.09-7,19.86,19.86,0,0,0-4-8.22c-2.33-3.19-5.1-6.27-8.59-7.38-2-.64-4.32-.62-6.53-1a6.3,6.3,0,0,1-1.45-.37,7.41,7.41,0,0,1-2.66-2.29,34.63,34.63,0,0,0-5.2-5.69A12.38,12.38,0,0,0,271.65.15a10,10,0,0,0-5.17.43,4.13,4.13,0,0,0-2.42,3.28,16.44,16.44,0,0,0-.15,6.82c.42,1.48,1.31,1.9,2.81,2.38a6,6,0,0,0,4.22.09c.79-.31,1.62-.86,2.38-1.08,1.54-.45,2.81.47,3.77,1.62.8,1,1.4,2.08,1.09,3A3.06,3.06,0,0,1,277,18.15a8.67,8.67,0,0,1-5.74,1.12c-2.67-.28-4.75-1.28-7.37-1.89-2-.46-4.36-.68-6.17.42-1.46.9-2.58,2.65-3.95,3.4a6.91,6.91,0,0,1-3.06.62c-4.41.24-9.31.68-13.34,2.62-2.23,1.08-4.2,2.61-4.6,5.15a8.33,8.33,0,0,0,.45,4.16,1,1,0,0,0,.64.56c1.51.59,6.22,1.24,8.92-.09.57-.27,1-.63,1.61-.89,1.57-.69,3.87-.57,5.87-.47a8.72,8.72,0,0,1,2.5.34c.51.21.85.56,1.31.76,1.49.68,4.2-.18,7.43-.47,4.47-.4,9.92.28,11.4,2.2a9.53,9.53,0,0,1,.71,1.34c.85,1.54,3.08,2.77,4.86,4.47A13.48,13.48,0,0,1,282,47.3c1.44,4.65.09,9.56.36,14.76.08,1.41.27,2.84-.36,4A3.84,3.84,0,0,1,280,67.74a6.27,6.27,0,0,1-1.93.24c-7.57.09-14.88-1.78-22.37-2.54s-15.17-.38-22.49-.6c-3.09-.09-6.13-.29-9.35-.31-1.21,0-2.44,0-3.71.07a2.45,2.45,0,0,1-1.82-.37,1.45,1.45,0,0,1-.48-1c0-.71,1.33-.78,2.42-.85a15.86,15.86,0,0,0,3.59-.52v-8a8.23,8.23,0,0,0-1.78.2A11.83,11.83,0,0,0,217,56.86a33.8,33.8,0,0,0-3.26,3.38,10.57,10.57,0,0,1-3.27,2.9c-2.26,1-5.22-.24-8-.48a31.71,31.71,0,0,0-6.77.61,56,56,0,0,1-9.07.12,46.12,46.12,0,0,1-8-.85c-2.85-.63-5.74-1.77-7.62-3.87a16.73,16.73,0,0,1-2.48-4.19c-1.32-2.94-2.41-5.82-3.78-8.65a73.25,73.25,0,0,0-10.72-15.74A112.11,112.11,0,0,0,137.67,14.9c-2-1.57-4.15-3.13-6.53-3.51a32.87,32.87,0,0,0-3.87-.12,8.63,8.63,0,0,1-2.36-.39l-.28-.12c-1-.43-1.51-1.21-2.47-1.39-1.38-.27-3.59.67-5.64,1.27a29.4,29.4,0,0,1-10.77.87c-3.09-.19-6.3-.51-9.07.61A9.18,9.18,0,0,0,92,16.33a7.6,7.6,0,0,0,.93,8.18c.73,1,1.72,2,2,1.27.1-.27.11-.76.33-1s.66-.11,1.09,0c2.78.72,4.72,1.56,6.89,1.94a20.6,20.6,0,0,0,10.64-1.33c2.47-1,4.87-2.34,5.92-4.36A19.53,19.53,0,0,0,121,16.47c.32-1.33.81-2.75,1.94-3.14a2.4,2.4,0,0,1,.85-.13,3.91,3.91,0,0,1,3,1.94c.81,1.2,1.25,2.79,2.42,3,.61.13,1.44-.13,2,.12a2.28,2.28,0,0,1,.85.73c1.21,1.52,1.58,3.44,2.42,5.08,1.39,2.74,4.07,4.73,6.32,6.69,1.85,1.6,3.41,3.19,5.18,5,2.78,2.84,6.08,6.19,8.14,9.81A13.76,13.76,0,0,1,155.88,50c.29,2-.48,3.44.79,5.61.87,1.48,2.71,3.32,3.62,5.11.66,1.29.83,2.56,1.61,3.63,1.43,1.95,4.89,3.2,7.72,3.89a33.55,33.55,0,0,0,6.26.9,223.58,223.58,0,0,0,23.46-.24,34.09,34.09,0,0,1,9.19.48c2,.45,4.24,1.2,4.84,2.9a6.26,6.26,0,0,1,.24,1.33c.49,4.71.65,9.24,1,13.79.93,13.69,3.17,27.55,4.23,41.35,1,12.43,1,24.79,1.93,37.37.15,1.88.32,3.76.32,5.63a21.54,21.54,0,0,1-.44,4.53,10,10,0,0,1-.6,1.93,8.1,8.1,0,0,1-.85,1.45c-1.28,1.75-3.23,3.07-4.11,5a30,30,0,0,0-1.09,4c-.82,2.72-2.82,4.89-4.23,7.38a21.7,21.7,0,0,0-2.66,9.07c-.18,2.37,0,4.75-.12,7.13a24.46,24.46,0,0,1-.61,4.59,41.57,41.57,0,0,1-1.45,4.6,54.13,54.13,0,0,1-2.05,5.32c-1.07,2.24-2.47,4.33-3.63,6.53s-2.14,4.65-3.39,6.89a76.39,76.39,0,0,0-4,7c-1.11,2.66-1.52,5.63-2.54,8.35-.89,2.39-2.27,4.58-3.38,6.89a66.81,66.81,0,0,0-3.51,9.67c-.44,1.47-.88,2.94-1.45,4.36-.47,1.17-1,2.3-1.59,3.43a42,42,0,0,0-2.73,6.24c-.4,1.28-.66,2.61-1.16,3.78-1,2.36-3,4.08-4.63,6.35-.63.87-1.22,1.83-2.09,1.93a2.17,2.17,0,0,1-1.2-.25c-1.29-.64-1.2-2-1.36-3.22-.37-2.81-2-5.32-3.15-9-1.76-5.67-2.28-14.08-2.9-21.19-.57-6.48-1.23-11.88-2.17-17.26-.66-3.82-1.47-7.63-2.35-11.13-1.39-5.51-3-10.25-4.34-16.23-1.14-5-2.16-10.75-2.93-16.15-.79-5.56-1.31-10.7-1.86-15.87a133,133,0,0,0-3.27-20.19c-.91-3.43-2.09-6.8-2.9-10.28a33.67,33.67,0,0,1-1-8.1c.06-3.27.77-6.53,1-9.79a9,9,0,0,0-.6-4.48c-.68-1.45-2-2.87-3.39-2.9s-2.84,1.4-3.51,2.9a6.69,6.69,0,0,0-.12,4.6,7.79,7.79,0,0,1,.61,3,2.39,2.39,0,0,1-.85,1.81c-.62.35-1.57-.11-2.42-.6a13.88,13.88,0,0,1-5.74-6,25,25,0,0,1-1.55-3.62,10.07,10.07,0,0,1-.64-3.33.75.75,0,0,1,.23-.58c.43-.36,1.67-.32,2.85-.29,4.32.1,7.83,0,11.12,0,2.7,0,5.26,0,8,.06,4.66.18,9.83.7,14.59-2a8.9,8.9,0,0,0,2.44-1.87c.86-1,1.3-2.25,2.1-3.2a12.12,12.12,0,0,1,3.08-2.29,7.89,7.89,0,0,0,3.66-3.69,12.7,12.7,0,0,0,.62-2.75c.52-3.64.31-4.41-.8-5.76a41.22,41.22,0,0,0-14.24-10.1c-5.27-2.34-11.7-4-15.76-3.25a5.41,5.41,0,0,0-2.45,1.07c-1.31,1.05-2.61,3-4,3.37a3.51,3.51,0,0,1-1.21,0,67.3,67.3,0,0,0-22.65,1.38c-1.75.42-3.56.91-4.66,2-.74.72-1.16,1.69-1.94,2.51-1,1-2.49,1.8-2.77,2.92a2.27,2.27,0,0,0,.63,2c2.08,2.25,8.25,1.6,10.13,1.31.42-.06.62-.1.57-.35-.09-.46-1-1.58-1.32-2.4a1.78,1.78,0,0,1,0-1.29c.84-2.47,4.18-3.1,13.08-2.94,3.57.07,8,.27,9.72-.16a3.78,3.78,0,0,0,1.22-.61c2.12-1.25,7.65,1,14.13,2.92,5.53,1.68,11.76,3.19,16.7,6.89,1.22.92,2.36,2,2.25,3s-1.26,1.88-2.38,2.58l-.76.45a16.84,16.84,0,0,1-5.2,1.73c-5.35,1-10.88.72-16.24.35-8.6-.6-16.75-1.48-26.73-2.51-2.92-.3-6-.61-6.83-2.16-.34-.63-.3-1.47-.76-1.77-.9-.6-3.7.81-5.83,2.22s-3.58,2.78-5.57,3.2c-1.13.23-2.42.17-2.55.81a1.58,1.58,0,0,0,.22.93c1.62,3.33,7.55,4.2,13,5.24,4.31.82,8.33,1.75,9.8,2a1.65,1.65,0,0,1,.53.16c.75.42,1.6,2.23,2.39,4.65a71.5,71.5,0,0,1,2.9,13.58c.1,1,.14,1.81-.58,2.32a3.07,3.07,0,0,1-1.25.47c-1.69.26-3-.76-4.63-1.08a5.63,5.63,0,0,0-3.49.43c-1.83.89-2.83,2.9-3.31,5.33-.66,3.38-.31,7.57,1.16,9.56a3.76,3.76,0,0,0,2.77,1.49c1,.12,2.12,0,3.27.09a9.22,9.22,0,0,1,4.71,1.45,7.45,7.45,0,0,1,2.18,2.29,9.22,9.22,0,0,1,1.09,6.53,18.72,18.72,0,0,1-.85,2.66,43.65,43.65,0,0,0-2.42,9.44c-.59,4.75-.09,9.62.24,14.39.31,4.28.47,8.48.56,13a11.8,11.8,0,0,1-.51,4.6,2.62,2.62,0,0,1-1.22,1.43,5,5,0,0,1-1.5.29c-7.61.65-14.26.66-21,1.16-9.71.7-19.58,2.41-29.55,3.37-8.94.86-18,1.11-27,1.21-3.71,0-7.41,0-11.06.24-2.35.13-4.68.33-6.43,2.15-1.29,1.35-2.27,3.59-1.31,4.13a2.82,2.82,0,0,0,1.25.17c2.42,0,5.92-.4,7.92-.27a1.45,1.45,0,0,1,1,.34,4.07,4.07,0,0,1,.64,1.09,6.68,6.68,0,0,0,2.37,2.81,4.29,4.29,0,0,0,2.44.46c1.23-.07,2.57-.43,3.92-.65a45.08,45.08,0,0,1,8.72-.2c2.92.1,5.94.15,8.32,1.77a4.46,4.46,0,0,1,1.57,1.66,5.38,5.38,0,0,1,.39,1.37c.7,3.9.22,7.66.49,11.76a4,4,0,0,1-.06,1.43,3.82,3.82,0,0,1-1.69,1.72c-4.75,3.23-9.71,6.29-12.57,10a30.25,30.25,0,0,0-2.29,3.62c-1.74,3.09-3.67,6.48-6.64,8.88-1.48,1.2-3.22,2.15-4.14,3.69a17,17,0,0,0-1.33,4.26c-1.08,4.09-3.51,7.62-5,10.5A26.46,26.46,0,0,0,27,303.52a32.8,32.8,0,0,0-1.37,4.81c-1,4.83-.71,10.41-1.85,15.44-1,4.56-3.22,8.66-3.69,12.57-.29,2.46.1,4.84-.13,7.51a10.36,10.36,0,0,1-.76,3.41,1.92,1.92,0,0,1-1.89,1.07c-1.78.12-5.23-.43-7.56-.23A5.08,5.08,0,0,0,6,349.78a12.66,12.66,0,0,0-2,4.72A92.11,92.11,0,0,0,.41,371.36c-.46,4.28-.72,9.44.26,11.33.38.74.93,1,2.46,1.06,2.46.12,7.44-.2,9.61.62a2.4,2.4,0,0,1,1.49,1.41c1.17,2.78-.29,9-.79,13.52a37.88,37.88,0,0,0-.13,7.1c.07,1.16.14,2.15,1,2.83s3.12,1.16,5.06,2.33c3.35,2,6.23,6.33,8.94,8.58,3,2.46,5.71,2.46,6.24,5,.26,1.26,0,3.15.3,4.8a27.47,27.47,0,0,0,1.75,4.22c.89,2.28.75,4.64.78,7.29a61.2,61.2,0,0,0,4,21.6c1.24,3.11,2.84,6.11,3.59,8.86a30.8,30.8,0,0,1,.79,5.21c.71,7,2.15,16.14,5.44,22.46,1.29,2.47,2.86,4.51,3,6.53s-1.13,3.87-.77,6.3c.3,2,1.68,4.35,2.79,6.47a52.09,52.09,0,0,1,4.65,12.43c1,4,2,8.45,3.2,12.9a98.11,98.11,0,0,0,9,21.79c2.54,4.54,5.57,9.13,8.49,13.52,4.25,6.4,8.28,12.37,11.14,18.15,2,4,3.43,8,6.69,10.87,1.6,1.43,3.63,2.62,4.37,4.28.57,1.28.38,2.83.84,4.34.72,2.36,3,4.62,5.55,6,3.36,1.81,7.1,2.06,10.25,3.09s5.79,2.9,9.4,2.8c4.08-.1,9.46-2.7,11-7.62.53-1.74.57-3.78.16-4-.63-.35-2.29,3.44-4.54,5.54A9.67,9.67,0,0,1,128,625a18.53,18.53,0,0,1-7.49-3.41c-5.31-3.51-11.28-7.56-15.06-13.61a71.44,71.44,0,0,1-4.05-8.23,112.15,112.15,0,0,0-6.7-12.7c-2.49-4-5.34-8-6.69-12.08-.74-2.29-1-4.63-1.94-6.87a61.94,61.94,0,0,0-3.24-6c-3-5.56-4.3-11.86-6.75-18.06-2-5-4.76-10-6.21-15A71.54,71.54,0,0,1,68,518.61c-1.73-12.37-4.88-24.69-7.55-37.1A616.49,616.49,0,0,1,48.85,399c-1.61-21-2.43-42.12.41-62.59A164.06,164.06,0,0,1,57.6,302.8c2-5.59,4.39-11.34,6.88-14.76a8.48,8.48,0,0,1,1.17-1.36c2-1.84,5.75-3.14,8.8-4.28,3.58-1.34,6.19-2.47,10.48-4.15A15.7,15.7,0,0,1,89.51,277c2.23-.12,4.3.89,6.36,1.77,2.68,1.15,5.35,2.07,7.77,1.36,1-.28,1.87-.81,3-1.13,2.44-.67,5.93-.36,8.31-.32,1.89,0,3.09-.11,4.38,1.2s2.53,3.74,3.78,5.92c6.06,10.5,11,13.39,14,19.24,1.28,2.47,2.21,5.46,3.89,7.35,1.09,1.22,2.49,2,3.14,3.54a15.22,15.22,0,0,1,.67,4A92.25,92.25,0,0,0,148.89,339c2.71,8.77,6.71,19.17,8.4,18.67.43-.12.54-1.52.5-3.44s-.25-4.14-.47-6.26c-.62-6-1.44-10.52-2.09-15.83-.47-3.93-.85-8.28-2.56-11.27a27.06,27.06,0,0,1-2.37-3.91,9.89,9.89,0,0,1-.49-5.11c.22-1.2.72-2.25,1.45-2.35.55-.08,1.23.39,2.06.41,1.14,0,2.57-.8,3.81-1.31,1.66-.67,3-.76,3.65-.21s.67,1.62.18,3c-1,2.85-4.47,6.75-4.36,9.89a2.19,2.19,0,0,0,.71,1.73,4.81,4.81,0,0,0,2.41.3,5.12,5.12,0,0,1,1.82.32c.36.19.27.47.21.82-.58,3.06-.06,12.33.24,19.37a13.1,13.1,0,0,1-.17,3.8,9.79,9.79,0,0,1-.79,1.55,11.87,11.87,0,0,0-.57,5c.06,1.54.22,3.22.37,4.87,1.63,17.78,2.3,32.59,3,47.8.37,7.61.75,15.32,1,23.66a27.25,27.25,0,0,1-.33,6.74,3.64,3.64,0,0,1-1.93,2.64c-1,.53-2.62.82-3.81,1.39a5.34,5.34,0,0,0-2.48,2.37c-1,1.84-1,4.24-1.88,7.05-.51,1.74-1.31,3.62-2.53,3.89a3,3,0,0,1-2.7-1.47c-1.22-1.71-1-4.22-1.27-6.32a30,30,0,0,0-1.22-4.52c-1-3.59-1.12-7.4-2-11.13a16.75,16.75,0,0,0-3.71-7.59,15.78,15.78,0,0,0-6.91-4c-3.84-1.19-7.84-1.28-11.81-1.35-1.18,0-2.36,0-3.43-.16-5.2-.59-7.81-3.65-13.5-3.08-4.56.47-11.08,3.27-16.19,3.79-2.88.29-5.31-.14-7.78.32A7.74,7.74,0,0,0,76,422.33a3.84,3.84,0,0,0-.49,2.83c.31,1.11,1.37,2,2.08,3.07a10,10,0,0,1,1.35,5.23C79,438.39,77,442.92,77,447.79a13.29,13.29,0,0,0,2.36,7.93,10.37,10.37,0,0,0,5.39,3.71,17.16,17.16,0,0,0,4.22.51c7,.19,13.42-.57,21.08.5,2.4.34,4.91.86,6.58-.5,1-.81,1.68-2.3,2.87-2.7.61-.21,1.36-.13,2-.34a3.57,3.57,0,0,0,2.19-2.7c.24-1.15-.08-2.31.17-3.37a15.55,15.55,0,0,1,1.18-2.53,10.26,10.26,0,0,0,.34-6.07c-.6-3.26-1.85-6.25-2.7-9.28a25.76,25.76,0,0,1-1-6.07,3.79,3.79,0,0,1,.34-2.19,3.68,3.68,0,0,1,2.36-1.18c2.73-.6,5.48-.5,7.42,1a7.2,7.2,0,0,1,2.19,3c.94,2.43.53,5.12.5,7.75,0,4.78,1.2,9.36,2.62,14.16,1.29,4.34,2.73,8.86,3.49,12.75a39.86,39.86,0,0,1,.62,10.31c-.14,2.92-.47,6.42.09,9,.35,1.59,1,2.82,1.41,4.19,1,3.35.19,7.5,1.29,10.75a18.1,18.1,0,0,0,2.49,4.34c.92,1.36.92,1.78,1.2,4.38.43,3.94,1.49,12.88,3.7,19.1.61,1.72,1.31,3.23,1.93,4.66a81.07,81.07,0,0,0,4.37,9.46,22.71,22.71,0,0,0,8.67,8.55c4,2,8.39,1.73,12.52,1.23,4.68-.56,9-1.48,13.43-6.59.73-.83,1.46-1.78,1.83-1.43a2.88,2.88,0,0,1,.38,1.4c.67,5.29-.27,8.79-1.09,12.31-1.34,5.72-2.38,11.49-.25,20.07.8,3.27,2.07,7,3.9,6.41a19.13,19.13,0,0,0,2.5-1.68c1.23-.74,2.73-1,3.21-2a4.26,4.26,0,0,0,.17-2c-.4-5.19-1.93-9.41-2.63-13.83-.91-5.81-.38-12,0-17.75.35-5,.6-9.73.48-17.94,0-1.87-.07-3.91.57-3.62a4.32,4.32,0,0,1,1,1.19A47.14,47.14,0,0,1,210.11,539c1.57,5.85,2.67,12.24,7.08,18.39,1.9,2.64,4.4,5.23,3.38,7.76a3,3,0,0,1-.85,1.17c-2.17,1.78-7.73.08-7.75,2.37a3,3,0,0,0,.5,1.51c1.28,2,4.13,1.34,6.75,1.18a11.26,11.26,0,0,1,4.63.54,5.63,5.63,0,0,1,1.44.81c1.33,1.07,2.14,2.88,3,4.56,1.8,3.38,3.94,6.27,5.39,9.61s2.13,6.78,3.88,9.78c1.61,2.77,4.07,5,6.07,7.59a97.6,97.6,0,0,1,5.57,8.77,89.54,89.54,0,0,0,9.44,12.31,58.58,58.58,0,0,0,11.13,10.12,42.55,42.55,0,0,0,10.46,4.89,30.15,30.15,0,0,0,10.79,1.69,29.26,29.26,0,0,0,10.12-2.7,50.19,50.19,0,0,0,13.32-8.77,63.45,63.45,0,0,0,10.12-11.81,88.09,88.09,0,0,0,10.63-22.59c2.14-6.77,3.59-13.7,5.23-20.58,1.16-4.89,2.41-9.77,3.54-14.67a197.15,197.15,0,0,0,3.71-20.41C349.9,522.71,348.74,504.55,346.89,486.58ZM258.28,101.42c1.34-3.32,8.44-4.67,10.64-4.15a1.1,1.1,0,0,1,.91.86c.65,1.91.69,8-.26,9.87a1.5,1.5,0,0,1-.84.75,5.82,5.82,0,0,1-2.63.26c-3.35-.36-7.73-3-8-6A3.27,3.27,0,0,1,258.28,101.42Zm33.48-80.84c1.15-1,4.45.78,6.79,3.39s3.81,6.31,2.7,7.36-4.9-.55-7.31-3.34S290.58,21.54,291.76,20.58ZM272.23,8.22c-.33,0-.66-.41-.71-.85s.27-1.06.66-1.1a.94.94,0,0,1,.84.85C273.07,7.65,272.65,8.23,272.23,8.22ZM272,28c-.39.72-2.31.55-3.63-.37-1-.73-1.73-1.92-1.4-2.52s1.94-.58,3.17.1S272.42,27.31,272,28ZM108.51,20.79c-2.88.59-6.55,0-6.44-.85,0-.41.94-.89,1.92-1.17a32.42,32.42,0,0,1,5.13-.54c1.71-.17,3.42-.57,3.84-.3C113.58,18.34,111.46,20.17,108.51,20.79ZM234.16,230.13c-2.2,2.52-3.53,6.28-4.57,6.68-.87.33-1.54-1.64-1.35-4,.22-2.77,1.58-6.11,4.09-7.67,3-1.84,7.5-1.2,8.18-.37S237,226.88,234.16,230.13Zm52.46,10.27c7.83,5.47,17,11.76,15.79,14.39-.66,1.39-4.23,1.76-7.17,1.58-5.59-.35-8.89-2.71-14.19-5.87-7.34-4.38-18.54-10.31-30.64-12.93-5.47-1.19-11.13-1.7-11-3.67.09-1,1.69-2.4,3.6-3,2.79-.84,6.23.07,9-.07,3.69-.2,6.21-2.26,9.1-2.83C267.53,226.75,275.75,232.8,286.62,240.4ZM237,210.3a10,10,0,0,0,.28,2.8,2.59,2.59,0,0,0,2,1.51,3.5,3.5,0,0,0,2-1c2.29-1.85,4.69-3.62,7.37-3.45a6.3,6.3,0,0,1,5.75,4.89,1.82,1.82,0,0,1-.19,1.53,2,2,0,0,1-1.34.28c-4.84,0-8.56-.35-12.49,0a21,21,0,0,0-9.87,3.06c-2.34,1.46-4.69,3.6-6.43,3.67a1.09,1.09,0,0,1-.18,0,1.71,1.71,0,0,1-1.36-.72c-1-1.27-1.12-4.29-.72-6.67a9,9,0,0,1,2.08-4.66,6.5,6.5,0,0,1,.94-.88c2.39-1.84,6-2.2,9.64-2.28a2.89,2.89,0,0,1,1.72.29A2.45,2.45,0,0,1,237,210.3Zm-5.39-60.82c.7-.26,2.12,2.85,2.91,6.15,1.55,6.48.66,13.71.81,20.22.09,4.12.59,8-.69,9.18-.41.39-1,.52-1.13,0a2.62,2.62,0,0,1-.06-.73,33.16,33.16,0,0,0-.44-6.46c-.31-1.5-.85-2.8-1.19-4.21-.76-3.13-.57-6.83-.68-12.17C231,156.38,230.61,149.84,231.56,149.48ZM216.7,199.87c.31-2.87.59-6.15,2-8.2.54-.83,1.26-1.46,1.88-1.25.87.29,1.55,2.2,1.74,4,.32,3.11-.8,5.91.56,6.14a3.16,3.16,0,0,0,1-.07l.34-.06c2.3-.41,6-.85,6.09.2,0,.41-.54,1.06-1.22,1.64a18.38,18.38,0,0,1-5.21,2.85c-.87.35-1.73.66-2.54,1-1.85.65-3.41,1.18-4.21.69C215.93,206.08,216.33,203.26,216.7,199.87ZM14.26,376.33a1.32,1.32,0,0,1-1.12.78c-1.51.12-5-1.41-6-2.31a1.24,1.24,0,0,1-.46-.73c-.43-1.69.15-5.83.91-10.2.73-4.21,1.63-8.64,3-9.82a.92.92,0,0,1,1-.2,10.64,10.64,0,0,1,3.24,2.68,1.32,1.32,0,0,1,.29.6,55.44,55.44,0,0,1,.53,8.22C15.66,369.68,15.36,374.41,14.26,376.33Zm14.53,29.18a1,1,0,0,1-.56-.07A7.34,7.34,0,0,1,26.08,404a8.17,8.17,0,0,1-2.64-3.79c-.62-2-.35-4.68-.36-7.16,0-2.17-.25-4.22.3-6.14s1.89-3.69,2.52-5.52c.78-2.29.45-4.67.31-7.63-.19-4.33.06-9.89,1.6-12a2.52,2.52,0,0,1,1-.88c.5-.17.62.27.72,1,.57,4.06.3,16.55.62,29.53C30.36,398.24,30.69,405.21,28.79,405.51ZM55.23,272.72c-.51,1.8-1.54,2.67-2.2,3.9a13.88,13.88,0,0,0-1.19,3.9A80.45,80.45,0,0,1,50,289.34a30.65,30.65,0,0,1-3.06,6.61c-1.57,2.59-3.47,5-4.74,7.63-1.43,3-2,6.31-2.89,9.67a154.29,154.29,0,0,1-5.08,15.94c-2.09,5.62-3.9,10-4.38,19-.1,1.87-.14,3.93-.82,3.84-.36,0-.9-.7-1.24-1.39-.79-1.57-.58-3.35-.39-5,.43-4,.72-7.47,1.2-11.14a88.64,88.64,0,0,1,1.73-9.56c.59-2.44,1.31-4.85,1.86-7.29.67-3,1.07-6,1.7-9A82.18,82.18,0,0,1,36.58,299a71,71,0,0,1,4.24-10.17,47.54,47.54,0,0,1,4.58-7.12c1.54-2,3.28-3.93,4.58-5.77a37.89,37.89,0,0,1,3.22-4.41c.72-.81,1.62-1.71,2-1.52S55.54,271.63,55.23,272.72ZM111,237.31c0-2.37,0-4.79.73-6.26a2.65,2.65,0,0,1,1.26-1.32,7.88,7.88,0,0,1,2.64-.51,5.3,5.3,0,0,1,3.49.54,4.21,4.21,0,0,1,1.32,2c.84,2.33.46,4.78,0,7.14s-1,4.42-1.32,6.67a8.66,8.66,0,0,1-1.31,4.11,3.81,3.81,0,0,1-3.11,1.71c-1.16-.17-2.09-1.53-2.62-2.75a10.33,10.33,0,0,1-.67-2.39A56.07,56.07,0,0,1,111,237.31Zm-25.86-5.07a28.36,28.36,0,0,1,4.51-1,33.7,33.7,0,0,1,6.32-.79c1.22,0,2,.36,1.82.67-.31.5-3.19,1-6.26,1.23C88.17,232.62,84.54,232.63,85.16,232.24ZM72.75,242.88a2.63,2.63,0,0,1,1.38-1.27c2.68-1.3,6.77-1.12,12-1.39a126.45,126.45,0,0,0,15-1.76,2.43,2.43,0,0,1,1.38-.05c.17.12.17.38.16.64,0,1.8,0,3.63.16,5.93s.3,5.4.57,8.18c0,.62.12,1.23-.2,1.53a2.4,2.4,0,0,1-1.51.31,34.65,34.65,0,0,1-5.5-.37c-5.13-.71-10.65-2.21-16.11-1.55-1.56.18-3.11.54-4.55-.15a5.25,5.25,0,0,1-1.93-1.67,7.74,7.74,0,0,1-1-4.12A10.39,10.39,0,0,1,72.75,242.88Zm31.32,21.63c-.21,1.07-1.52,1.66-2.12,2.72s-.5,2.66-1.31,3.36a3.74,3.74,0,0,1-1.9.58c-4.32.53-8,.09-12,.29a33.93,33.93,0,0,0-13.14,3.21c-2.27,1.16-4.22,2.63-7.15,3.51-1.29.38-2.77.65-3.51,0-1-.85-.64-3.26.44-4.53s2.84-1.38,3.65-2.48c1-1.28.59-3.85,1.75-4.82s3.19-.46,4.24-1.46a2.73,2.73,0,0,0,.73-1.75c.07-1-.3-2,0-2.92a2.94,2.94,0,0,1,1-1.34,5.59,5.59,0,0,1,3.42-.74,80.35,80.35,0,0,1,10.47.79,110.79,110.79,0,0,1,11.66,2.27,6.92,6.92,0,0,1,2.89,1.15A2.39,2.39,0,0,1,104.07,264.51Zm26.61,8.42a2.3,2.3,0,0,1-1,1.48c-.8.4-1.85-.29-2.87-.86a16.79,16.79,0,0,0-10.09-1.93c-1.84.16-3.7.51-6,.79s-5.21.49-5.8-.76a1,1,0,0,1-.06-.71c.09-.3.33-.62,1.48-.45l.25,0a4.47,4.47,0,0,0,3.12-.31c1.56-.85,2-2.34,2.94-3.34a5.33,5.33,0,0,1,2-1.32c2.58-1,5.69-.35,8.22.62a23.82,23.82,0,0,1,4.58,2.41C129.12,269.69,131.09,271.12,130.68,272.93Zm20.07,28a22,22,0,0,1-.27,4.17c-.14.54-.34.9-.73,1a3,3,0,0,1-1.41-.4c-3.31-1.6-5-4.63-7.21-7.45a7.53,7.53,0,0,1-1.42-2.25c-.34-1.06-.12-2.3-.36-3.43a8.29,8.29,0,0,0-1.42-2.83,71.76,71.76,0,0,0-5.56-7.22,2.13,2.13,0,0,1-.59-.94c-.08-.66.89-1.29,1.78-1.54a3.9,3.9,0,0,1,3.54,1,12.13,12.13,0,0,1,3.43,4.84c.67,1.5,1.23,3.08,2.72,3.91a3,3,0,0,0,2.37.35c.9-.41,1-1.92,1.06-3.31a20.18,20.18,0,0,0-2.24-10.76c-1.77-3.23-4.6-6.18-7.15-8.77a50.46,50.46,0,0,0-10.36-8.51,7.79,7.79,0,0,1-1.94-1.49,2.85,2.85,0,0,1-.38-2.09c.75-9.17,1.77-18.11,2.69-27.73.69-7.12,1.33-14.61,1.93-20.86a7.28,7.28,0,0,1,.51-2.34c.18-.41.43-.86.74-.93s.72.25,1.07.59a9.18,9.18,0,0,1,2.36,5c.57,2.46,1.14,5,1.54,7.57.49,3.11.74,6.23,1.06,9.34.45,4.39,1,8.78,1.78,13.13a130,130,0,0,0,2.84,12.77c2.57,9.3,6.33,18.36,8.11,26.32C150.65,284.14,150.83,289.71,150.75,300.88ZM91.09,435.66a12,12,0,0,1-.6-7,1.66,1.66,0,0,1,1-1.08c1.56-.71,4.48-1.13,8.11-1.64,3.13-.44,6.79-1,9.27,0a6.88,6.88,0,0,1,3.9,5,15.07,15.07,0,0,1,.33,5.87.81.81,0,0,1-.61.73c-1.65.55-7.65.35-13,0a30.3,30.3,0,0,1-7.06-.89A2.25,2.25,0,0,1,91.09,435.66Zm24.62,17.48a1.25,1.25,0,0,1-1,1c-2.49.86-11.31,1.94-16,.4a7,7,0,0,1-4.53-4.29c-1.27-2.83-2.17-7.28-1-8.82.54-.75,1.57-.82,2.69-.68,3.11.36,7,2.18,11.2,2.47,3.11.21,6.38-.41,7.85.24a1.37,1.37,0,0,1,.66.58C116.49,445.7,116.26,451.3,115.71,453.14Zm72.57-179.22c.68-3.29,2.08-5.61,3.78-8.52a51.72,51.72,0,0,0,4.38-8.7,23.2,23.2,0,0,0,.57-2.42,63.68,63.68,0,0,1,3.91-11,46.61,46.61,0,0,1,7.16-12c.81-1,1.7-2,2.58-2.06a2.25,2.25,0,0,1,1.77.93c2.89,3.22,2.56,11.63,1.79,14.36a1.75,1.75,0,0,1-.65,1c-.44.34-1.21.71-1.91,1.12-3.54,2.05-5.52,5.19-7.63,8.32-3,4.5-6.32,9-9.51,14.25-1.54,2.55-3.06,5.31-5,6.44-.58.35-1.2.55-1.39.09A4.18,4.18,0,0,1,188.28,273.92Zm-.64,235.67c-.25,4.44-.41,8.86-.68,13.19-.16,2.71-.37,5.39-.66,8a24.49,24.49,0,0,1-1.72,7.37c-.78,1.81-1.93,3.76-3.69,4.42s-4.31-.06-6-1.27a7.87,7.87,0,0,1-2.77-3.71,10.9,10.9,0,0,1-.68-3,2.56,2.56,0,0,1,.21-1.56,3.84,3.84,0,0,1,1.19-.84,4.57,4.57,0,0,0,2-3.9,4.75,4.75,0,0,0-1.09-2.82,6.48,6.48,0,0,0-1.49-1.35c-2.22-1.51-5.64-2-6.64-4a8,8,0,0,1-.48-2.93c-.22-2.53-1.47-2.78-2.32-5.52a26,26,0,0,1-.81-4.25c-.26-2.2-.4-4.74.25-5.77a1.84,1.84,0,0,1,1-.72,44.06,44.06,0,0,1,6-1.43,36.5,36.5,0,0,1,5.67-1,2.22,2.22,0,0,1,.85.15c1.13.39,3.29,1.75,5.34,1.61a5.59,5.59,0,0,0,4.8-4.22,4.12,4.12,0,0,0,.07-.78,6.52,6.52,0,0,0-3-5,5.53,5.53,0,0,0-6-.29c-1.21.69-2.33,1.85-3.48,2.28a5.66,5.66,0,0,1-1.22.27c-3.22.47-7.31.88-9.67.2a1.42,1.42,0,0,1-1-.64,4.87,4.87,0,0,1-.33-1.94,93,93,0,0,1,1.71-23.75c.62-3.28,1.37-6.77,3.11-9a5.38,5.38,0,0,1,4.68-2.2,9.54,9.54,0,0,1,4.34,1.74,22.5,22.5,0,0,1,6.49,7.44,41.1,41.1,0,0,1,3.71,8.71,66.35,66.35,0,0,1,2.76,14.65c.18,2.49.22,5,.18,7.53C188.28,500.06,187.91,504.84,187.64,509.59ZM210.1,298.36c-.65,1.64-.74,3.52-1.25,5.15-1.06,3.35-4,5.62-5,9.38-.6,2.19-.56,4.89-1.79,6.68a17,17,0,0,1-1.79,1.92c-2.42,2.56-3.31,6.18-4,9.66-1,4.71-1.69,9.19-3.38,13.55-1,2.46-2.21,4.87-3,7.41a39.39,39.39,0,0,0-1.4,9.7,197.54,197.54,0,0,0,.9,30.09c.82,7.92,2,15.64,2.71,24.16.25,3.11.43,6.33,2.7,8.47.68.64,1.55,1.18,1.84,2.08a5.2,5.2,0,0,1,.1,1.87c-.56,9.81-.56,18.35-.38,26.13.18,7.62.54,14.51,2,21,.43,1.91,1,3.79,1.66,6.56.22.88.45,1.84,0,2.17a2,2,0,0,1-1.45,0,4.7,4.7,0,0,1-2.52-1.81,14.63,14.63,0,0,1-2.27-5.62c-.49-2.14-.85-4.3-1.47-6.28a42.43,42.43,0,0,0-3.5-7.47c-2.09-3.83-4.15-7.85-6.28-11.63-.78-1.39-1.57-2.74-2.34-4.32s-1.41-3.18-3-4.06c-.7-.38-1.56-.62-2.16-.94a2.21,2.21,0,0,1-1.14-2.63c.27-1.34,1-2.25,1.49-4,.68-2.68.59-7.33.47-11.5-.29-10.34-.73-17.81-1.37-25.61-.68-8.21-1.6-16.78-2.22-25.34-1-14.41-1.28-28.77-1.62-43.25a37.94,37.94,0,0,1,.18-6.13,21.19,21.19,0,0,1,.72-3.25,29.57,29.57,0,0,1,4.15-8.29c2-2.83,4.36-5.53,4.86-8.83.18-1.19.11-2.45.36-3.6.54-2.54,2.58-4.56,4.33-6.67,3.16-3.83,5.38-7.94,8-12,5.35-8.07,12.5-15.7,17.11-24.44a12.26,12.26,0,0,1,2.32-3.56c.37-.33.79-.57,1-.33a2.76,2.76,0,0,1,.24,1.31c.52,11.3.47,20,.3,30.13,0,1.72,0,3.48-.12,5.1a10.39,10.39,0,0,1-.29,2.41C213.19,294.09,211,296,210.1,298.36Z"/><path class="cls-1" d="M216.19,576.85c-1.88-.93-3-2-5-2.2s-5.08.76-5.5,1.83c-.47,1.23,2.42,2.67,5.75,3.3,4.62.89,10.06.22,9.16-.85C220.12,578.36,217.87,577.68,216.19,576.85Z"/><path class="cls-1" d="M178,467.28c-1.17-.55-2.72-.1-4.21-.24a4.41,4.41,0,0,0-1.44,0,2.84,2.84,0,0,0-1.58,2,4.15,4.15,0,0,0-.14,1.2,6.63,6.63,0,0,0,3.88,5.85,4.2,4.2,0,0,0,3.06,0,4.78,4.78,0,0,0,2.54-3.12,4.66,4.66,0,0,0,.14-1.67C180.15,469.71,179.32,467.89,178,467.28Z"/><path class="cls-1" d="M178.22,514.68a1.43,1.43,0,0,0-1.14-.07c-.67.31-1.18,1.5-1.46,2.54a11.39,11.39,0,0,0-.34,2.37c-.12,1.82-.15,4.13.68,5.47a2.56,2.56,0,0,0,.28.37,3.85,3.85,0,0,0,2.13,1,7.52,7.52,0,0,0,6.08-1.09,4.44,4.44,0,0,0,1.4-1.93,2,2,0,0,0,.11-.67,2.76,2.76,0,0,0-.43-1.37C184.32,519.15,180.68,515.57,178.22,514.68Z"/><path class="cls-1" d="M168.73,473.48a6.12,6.12,0,0,0-2.39.71.74.74,0,0,0-.42.64c-.12,1.33,1.4,4.68,2.73,5.09a.69.69,0,0,0,.75-.19c.82-.94.59-4.92,0-5.95A.6.6,0,0,0,168.73,473.48Z"/></g></g></svg>