<svg xmlns="http://www.w3.org/2000/svg" viewBox="0 0 494.28 357.06"><defs><style>.cls-1{fill:#1d1d1b;}</style></defs><title>Middel 2</title><g id="Laag_2" data-name="Laag 2"><g id="Laag_1-2" data-name="Laag 1"><path class="cls-1" d="M41,307.16c-9.35.07-12.79,2.65-12,9.84,1.26,11.48,5.33,22,13.33,30.46,9.48,10.07,20.84,7.36,25.33-5.78C73,326,58.33,307,41,307.16Zm12.8,32.21A4.85,4.85,0,0,1,48.52,334a22.5,22.5,0,0,0-1.91-10.12c-1.08-2.41.09-3,2.26-2.45a7.71,7.71,0,0,1,6.36,7.27c.2,1.81.42,3.61.63,5.4C55.28,336,57,339.22,53.76,339.37Z"/><path class="cls-1" d="M489.13,21c-4.71-4.94-9.57-9.75-14.32-14.65a12.37,12.37,0,0,0-10.37-4A21.59,21.59,0,0,1,452.8.7c-3.21-1.47-6.59-.55-8,2.11-3.08,6-7.92,4.48-12.49,3.71A30.89,30.89,0,0,0,420,6.64c-4.2,1-8.5,1.52-12.75,2.26-12.22,2.14-24.63.52-36.9,1.83-6.12.66-11.81,2.89-17.82,4.17.11-3.83,3.62-3.77,5.43-5.54-2.12-1.61-4.21-1.54-6.6-.72-8,2.74-16,5.45-24.1,7.87-9.86,2.95-18.82,8.07-28.47,11.5h0a.65.65,0,0,1-.31.5.72.72,0,0,1-.45.1,1.54,1.54,0,0,1,.19-.24c-2.52-.3-4.5,1.07-6.51,2.19a178.93,178.93,0,0,0-32.65,22.93c-14.32,12.88-26.43,27.3-31,46.71-.15.61-.36,1.32-1.28,1.16-3.45-4.2-3.71-4.81-7-6.08-15.53-5.94-30.83-12.77-47.61-14.57A18.7,18.7,0,0,1,162,77a15.47,15.47,0,0,0-9.73-3.44c-11.48,0-23,0-34.42-1.08-17.36-1.57-33.58,4-50,8.11-4.55,1.15-6.75,4.41-7,9.2-.07,1.49.3,3.11-.77,4.33-2.45,2.8-2.55,5.9-.83,9.42a40.59,40.59,0,0,1-7-.25c-7.36-.75-23-6.58-24.07-6.74,2.27-2.67,4.5-5.35,6.82-8C37,86.4,38.67,84,38.78,81.14c.12-3.44,1.34-6.4,2.6-9.49,2.78-6.8.44-12.67-4-17.87-4.15-4.83-9.54-4.62-15.13-3.26-7.1,1.73-11.39,6.57-14.66,12.78a.42.42,0,0,0,.31.6c1.24.17,2.43.35,3.14-.89,2.46-4.25,6.68-4.52,10.81-4.89,7.47-.68,11.18,2.82,9.86,10.1-1,5.54-4.57,10.08-8,14.51a3.23,3.23,0,0,1-1.7,1c-2.15.55-2.32-1.43-3-2.6-.37-.66-.4-1.14-.19-1.48a2.15,2.15,0,0,1,1.67-.72c1.92-.19,3.92-.86,4-3S22.67,72.6,20.6,72c-.58-.16-1.5-.46-1.58-.85-1.05-4.84-4.93-3.58-8-3.66-3.48-.09-6.71,1.25-10,2.17A1.34,1.34,0,0,0,0,71v1.26a2.67,2.67,0,0,0,.37,1.31c2.14,3.8,0,7.6-.37,11.4v1c1.35,3.13-.25,6.56.86,9.71a.15.15,0,0,1,.09,0c0,.1,0,.2,0,.3.3,3,2.89,4.28,4.48,6.3,5.87,7.44,14.66,6.68,19.56-1.58a16.72,16.72,0,0,1,1.49-2.52c.71.46.6,2,3.34,4.31a41.49,41.49,0,0,0,24.62,9.87,102.61,102.61,0,0,1,14.87,1.73c32.08,6.66,63.36,15.76,92.41,31.39,1.09.58,2.59.74,3,2.21-.42.92-1.28,1.08-2,1.37-24.33,9.42-45.83,23.54-66.24,39.57-32.14,25.24-40.7,59.78-39,98.33.45,9.92,6.07,11.9,14.94,12.18,2.24.07,4.43-.74,5.19-3.15,0-.13.08-.26.11-.39.58-2.47-.75-4.39-2.91-5.38-5.08-2.32-5.92-6.39-5-11.21a115.87,115.87,0,0,0,1.61-24.38c-.36-12.66,3.7-23.81,11.07-34,9.56-13.24,21.58-24,34.06-34.25,16.95-14,35.76-24.41,57.14-29.78,24.28-6.09,48.57,5.68,59.16,28.31,1.85,4,4,7.72,7.7,10.27,1.68,1.14,3.41,2.32,5.53,1.47a2.53,2.53,0,0,0,.33-.16c2-1,1.75-3.09,2-4.95.27-2.14-.62-4.54,1.63-7.31,4.63,8.36,12,13.55,17.52,20.38,2.51,3.07,2.91,6.44,2.34,10.31-1,6.81,1.33,9.52,8,9.28,3.67-.13,5.56,1.26,6.61,4.6,1.29,4.13,2.52,8.3,4.16,12.3,4.34,10.56,8,21.13,6.34,32.93-.36,2.56-.47,6.24,3,7.67,0,0,4,5.41,3.94,7.19,0,1.1-.74,2-2.12,3.28a12.81,12.81,0,0,1-1.82,1.39c-15.92,10.07-32.89,18.7-45.63,33.22-1.48,1.69-3.93,2.45-5.71.35a3.93,3.93,0,0,1,.34-5.82c2.4-2,2.66-4.32.82-6.52-4.78-5.74-8.29-12-8.93-19.58a8.41,8.41,0,0,0-1.67-3.56c-6-9.15-6.51-20.09-10-30.06a2.78,2.78,0,0,1,.25-2.31,1.18,1.18,0,0,1,.94-.46,4.15,4.15,0,0,1,1.73.65c2.5,1.35,4.45,3.74,8.17,4.64A48.2,48.2,0,0,0,226,244.43c-4-3.92-7.37-8-7.39-14.13,0-4.38-2.92-6.85-6.85-8.22-7.4-2.59-15.26-3.49-22.66-1.78-38,8.78-72.22,24-94.18,58.67-2.61,4.13-5.64,7.8-10.14,10.06a8.29,8.29,0,0,0-4.26,4.7,14.86,14.86,0,0,0-.59,2,3.64,3.64,0,0,0,.87,3.62c1.63,1.56,3.54.11,5-.74,8.8-5,16.77-10.79,21.22-20.35A42.33,42.33,0,0,1,124,259.73c9.37-5.69,18.72-11.39,28.14-17a65.11,65.11,0,0,1,14.07-6.23,8.78,8.78,0,0,1,3.19-.69,2.44,2.44,0,0,1,1.81,1.1c1.66,2.28,3.88,2.26,6.24,2.12a6.27,6.27,0,0,1,5,1.83c7.61,7.62,14.35,15.73,15.85,27a16.54,16.54,0,0,0,3.25,8.26c3.45,4.35,5.54,9.41,7.39,14.58,5,14,11.58,27.46,16.06,41.72,2.12,6.74,2.79,6.62,9.25,3.53,1.66-.8,3.74-3,5.25-1s-.3,4.4-1.71,6.21-3.54,2.39-5.65,2.9a27.11,27.11,0,0,0-7.92,2.85c-2.46,1.49-5.17,3.11-3.81,6.6s4.63,4.25,7.91,3.18a55.66,55.66,0,0,0,9-4.13c12.3-6.66,22-16.57,32.29-25.79a157.86,157.86,0,0,1,29.28-20.5l.09,0v.1a5.14,5.14,0,0,1,2-1.28c12.44-8,26-14,38.93-21,4.44-2.41,6.5-.64,6,4.44-.41,4.55-3.29,6.65-7.4,7.52-7.07,1.49-13.71,4-19.41,8.54-1.44,1.15-4,2.23-3,4.55.88,1.93,3.35,1.06,5,.8,5.75-.91,11.49-2.18,16.47-5.32a26.52,26.52,0,0,1,13.61-4.21,18.6,18.6,0,0,0,8.09-2.2,19.06,19.06,0,0,1,9.11-2.16,15.69,15.69,0,0,0,11.64-4.84c3.27-3.35,2.57-5.71-1.79-7.33-4.14-1.54-7.83-.28-11.52,1.42-2,.93-4,1.85-5.82-.38a5.74,5.74,0,0,1-1.28-2.78,3.26,3.26,0,0,1,.32-1.88c1.23-2.39,3.62-1.78,5.72-1.45,4.09.67,7.94.53,11.16-2.6,3.55-3.45,3.09-6.81-1.28-9.13-3.9-2.09-7.7-1.07-11.58.13-6.78,2.09-10.87.06-13.3-6.57A42.9,42.9,0,0,1,349,254.3c-2.66-13.36-8.91-25.69-11.3-39.13a9.06,9.06,0,0,0-2.06-4.49c-6.55-6.86-5.55-15.63-6.26-24-.33-3.85.95-5.81,5.6-6,14.62-.49,28.15,1.79,41.06,9.53,8.1,4.87,17.84,4.59,27,1.64,2-.64,4.62-1.6,4.74-3.89.14-2.45-2.85-2.25-4.51-3.08-2.24-1.14-4.83-2-5-5-.15-3.33,2.71-3.64,5-4.54,6.37-2.46,7.93-6.46,4.64-12.57a49.71,49.71,0,0,0-5.73-8.13C393.34,144,381.74,137,368.87,132c-21.78-8.56-44.47-8.84-67.37-7.43a2.79,2.79,0,0,0-2,.73l-2.75-.67c-1.81.8-5,.5-10.64,0,3.72-5.33,9.9-7.6,12-13.63l.93-2.36c3.76-2.16,7.4-3.3,9.78-6.09A175.28,175.28,0,0,1,335.2,77.43a18.66,18.66,0,0,0,3.93-4.5,46.52,46.52,0,0,1,15.32-14A139.66,139.66,0,0,0,379.14,40.3c2.42-2.29,5-4.66,8.26-5.43a40.42,40.42,0,0,0,16.3-7.49c2.49-2,5.27-3.19,6.28-6.54.84-2.79,3.36-3.52,5.9-3.84,5.62-.69,11.25-1.24,16.86-1.88,8.76-1,8.76-1,8.36,7.89-.49,10.69,6.18,20.79,17.07,25.85,10.1,4.69,22.22,3.14,29.9-3.84C495.93,37.9,496.37,28.63,489.13,21ZM114,113.2c-.79,1.66-2.53,1.95-4.3,1.55-10.9-2.43-21.72-5.21-32.89-6.25-1.42-.13-3.84.34-4.06-1.91-.17-1.81,1.66-3,3.17-3.47,5.49-1.85,7.61-4.83,4.11-10.22a3.17,3.17,0,0,1-.26-1.46A7.73,7.73,0,0,1,80,90c3.82,1.28,6,3.88,7.7,7a35.25,35.25,0,0,0,7.12,9.52c3.54,3.3,7.18,6.12,12.23,2.48,1.62-1.16,3.52-.74,5.1.46C113.4,110.42,114.76,111.57,114,113.2ZM122.53,87c-1.89-.26-3.64-1.18-3.47-3.28.13-1.52,1.89-.41,2.53-.82,1.9.13,3.28.67,3.35,2.48C125,86.95,123.7,87.2,122.53,87Zm5.76,31c-1.46.09-4.1,2.57-4.35-1.47-.12-2,1.33-2.68,2.94-2.27,1.77.45,4.5.11,4.66,2.73C131.64,118.63,130.28,119.62,128.29,118Zm25.84,2.18a2.23,2.23,0,0,1-1.8,2c-.62-.11-1.31-.19-1.2-1.09a2.29,2.29,0,0,1,1.87-1.93C153.76,118.93,154.21,119.37,154.13,120.17Zm16.29-20.55a21.3,21.3,0,0,1-9.81,8,72.46,72.46,0,0,0,4.46-11c.45-1.5.36-4.76,3.48-3.23C171,94.64,172.18,97.13,170.42,99.62ZM185,119.93c-.43,1.16-.63,2.48-2,3q-.5,3.91-1,7.82c-.14,1-.34,2.2-1.62,2a6.07,6.07,0,0,1-2.52-1.39c-1-.76-.86-1.69,0-2.53a22.72,22.72,0,0,0,4.53-5.88c.41-1.45.43-3,1.59-4.23,1-4.87,2.5-9.47,6.9-13.71C191,111.5,188,115.72,185,119.93Zm2.94,24.49c1.77-1.56,3.32-1.73,5,0A3.8,3.8,0,0,1,187.91,144.42Zm15.1,1.51a1.06,1.06,0,0,1-1.28,1.16c-.82-.11-1.54-.7-1.36-1.58a1.72,1.72,0,0,1,1.29-1.07A1.34,1.34,0,0,1,203,145.93Zm14.32-12.41c-4.46-5.92-10.25-11.16-11.72-18.3.52-1.93-.43-3.59,1.24-4.23,1.48-.57,2.45.65,3.43,1.52A72.38,72.38,0,0,1,223,127.8c1.07,1.69,3,3.86.85,5.75C221.94,135.22,218.53,135.12,217.33,133.52Zm8,20.33a2.12,2.12,0,0,1-2.06-2.73c.33-1.38,1-3.09,2.76-3s.83,1.81,1.08,2.8C227,152.24,227.24,153.94,225.31,153.85Zm-24.42,87.31c-3.47-4.38-6.52-7.36-11.67-7.15,1-2.5,2.25-3.79,4.53-2.77C197.55,232.93,201.21,234.88,200.89,241.16Zm158.75-96.25c1.91-1.84,5,1.36,7.23,2.9,7.06,4.88,12.36,11.51,17.53,18.23,1.23,1.6,3.21,3.35,2,5.7s-3.84,2.23-7.54,2.15c-1.29-.2-3.94-.45-6.52-1-3.25-.73-5.55-2.82-5.22-6.26.54-5.5-2.07-9.48-5.21-13.47C360,150.72,357,147.47,359.64,144.91ZM348,146.77c0,1.05-.77,1.26-1.77,1.18-.89-.27-1.72-.74-1.38-2,.25-1,1-1.11,1.89-1A1.48,1.48,0,0,1,348,146.77Zm-1.1-8.81c-7,9-10.87-.32-16-2.65A31.37,31.37,0,0,1,346.92,138ZM318,282.88a2.3,2.3,0,0,1-2.3-2.57c0-1.13.46-2.38,2-2.11a3,3,0,0,1,2.72,3A2.05,2.05,0,0,1,318,282.88ZM331.15,240A249.86,249.86,0,0,0,341.51,267c.89,1.9,1.19,4.23-.92,5.91a6,6,0,0,1-5.7.73c-2.4-.75-3.12-2.89-2.84-5.23q.6-5.17,1.49-10.31c.46-2.59.57-5.36-1.72-6.83C326.58,248,324.71,244.59,331.15,240ZM298,182c.34-2,.69-4.09,1-6.14a1.64,1.64,0,0,0,1.41-.12,2.93,2.93,0,0,0,1-1.75c1.87-6.92,6.46-12.25,10.12-18.17,3.27-5.28,5-11.27,2-17.49-1-2-.24-2.69,1.74-2.9,4-.41,7.25,4.33,4.77,8.36-4.34,7-5.63,15.27-9.7,22.34-2.66,4.62-6,8.79-8.56,13.45-1,1.85-2.28,3.67-2.73,5.71a6.45,6.45,0,0,0-.15,1.33,10.92,10.92,0,0,0,.17,1.63l-.48.84c-2.25,3.82-4.45,6.36-8.75,6.45C291.67,190.16,297.11,187.38,298,182Zm-60.44-21.6c-2.79-.47-2.84-2.79-2.83-4.94,0-1-.28-2.74,1.41-2.48,2.53.38,3.14,2.5,3.33,4.7C239,158.76,239.71,160.72,237.57,160.36Zm25.73,5.55c-.24,1-.4,2.46-2.29,2.18-1.05-.15-2-.85-1.84-1.92.22-1.5,1.73-1.87,3-2.14C263.15,163.81,263.51,164.63,263.3,165.91Zm9.16,25c-3.61-.49-5.53-2.82-5.58-6.48,0-4.27,2.9-9,5.41-8.92,3.18.12,5.9,3.9,5.79,8.06C278,188.12,275.62,191.35,272.46,190.92Zm9.7-45.87c-1.51,2.33-3.93,2.24-6.25,1.71-1.26-.28-2.77-1-2.66-2.52.15-2.12,1.76-3.47,3.49-4.55a11.89,11.89,0,0,1,9.11-1.69C285.28,140.83,283.58,142.88,282.16,145ZM378.58,24.48c-11.16,4.07-19.9,11.91-29.52,18.48-19,12.93-33.64,30.22-49.3,46.54a12.38,12.38,0,0,1-.72,1.34v.29a1.1,1.1,0,0,0-.23-.09c-2.44-.84-3.86,1.3-5.42,2.5a127.28,127.28,0,0,0-27.17,29c-4.2,6-7.31,12.66-10.67,19.17-1,2-2.16,4.2-4.89,2.69-3.84-2.13-7.89-4.76-7.92-9.56,0-7.27-2.9-13.12-6.9-18.82-2.72-3.87-2.89-7.94,0-12.08a45.29,45.29,0,0,0,4.79-9.31c6.33-16.22,18.31-27.9,30.89-39.19,8.46-7.6,18.17-13.44,27.3-20.08l0,0a1.93,1.93,0,0,0-.79-.59,4.27,4.27,0,0,1,1,.38A5.15,5.15,0,0,0,299.7,34c-.2,0-.39-.07-.59-.12l.77-.34a2.56,2.56,0,0,1-.18.46c3.15.52,5.68-1.36,8.3-2.58,8.92-4.16,18.1-7.66,27.11-11.6,2.32-1,4.72-1.9,7,.24,3.49,3.3,7.73,3.58,12.16,2.92,7.59-1.13,15.3-.39,22.9-1.58,1.31-.2,3-.57,4.09.88A3.83,3.83,0,0,1,378.58,24.48ZM474.4,37c-2.13,3.93-6.57,4-10.38,4.34-6.51,0-9.76-2.56-10.82-8.79a67.44,67.44,0,0,1-1-9.39c-.11-3.66-.19-7.6,4.66-8.64,4.6-1,10.92,2.31,12.23,6.35.61,1.89,1,3.79,2.4,5.38C474.11,29.32,476.62,32.88,474.4,37Z"/><path class="cls-1" d="M461.77,183.89c-6.26-5.14-13.39-8.31-21.66-6.65-4.92,1-7.1-.75-8.07-5.4-1.43-6.77-7.58-9.38-13.65-6.06-2.8,1.53-3.37,3.55-1.46,6.1,1.39,1.85,3.15,3.4,4.13,5.59,1.16,2.62,1.16,4.29-2.4,3.77-2-.3-4.39-.72-5.26,1.51s1.3,3.54,2.69,4.9a13.31,13.31,0,0,0,5.49,3.34,17.34,17.34,0,0,1,8.1,5.55c5.29,6,12.26,8.21,20,8.5a18.45,18.45,0,0,0,10.9-2.91C467.94,197.3,468.55,189.45,461.77,183.89Z"/></g></g></svg>