<svg xmlns="http://www.w3.org/2000/svg" viewBox="0 0 96.42 147.35"><defs><style>.cls-1{fill:#1d1d1b;}</style></defs><title>Middel 1</title><g id="Laag_2" data-name="Laag 2"><g id="Laag_2-2" data-name="Laag 2"><path class="cls-1" d="M96.33,12.35a1.93,1.93,0,0,0-1.2-1.22,2.23,2.23,0,0,0-.39-.09l-.24,0L94,10.93l-3.81-.58L59.48,5.54,53.7,4.43C47,3.15,40.79,2.53,34.8,1.68L30.42,1C29.47.83,28.54.65,27.6.46L25.92.11a4.84,4.84,0,0,0-2.5.13,4.77,4.77,0,0,0-3.2,3.63c-.26,1.65-.34,3.23-.53,4.8-.25,1.36-.48,2.69-.68,4a77.75,77.75,0,0,0-1.57,8.58c.14.13.14.71.21,1.05l-.11.79c-.35,1.33-.69,2.81-1.05,4.08,0,.69-.05,1.35-.06,2a56.61,56.61,0,0,0-2.05,12.3c-.2,1.05-.39,2.14-.55,3.28-.44,3-.57,5.31-.79,7.84l-.17,1.08a49.57,49.57,0,0,1-2,8.27l-.06,1.67C10,66.65,9,74.1,9.32,76.19l-.05.29-.53,2.78A50.19,50.19,0,0,0,7,88.51c-.27,1.56-.54,3.17-.79,4.91l-3.68,24.9-.36,2.31c-.37,1.88-.75,3.75-1.05,5.72-.19,1.23-.31,2.29-.41,3.27l-.62,3.84L0,134a2.18,2.18,0,0,0,1.56,2.34l.25.06.14,0,.24,0,.47.07.95.14c2.52.36,5,.67,7.36.89l.25,0,4,.74c.12.09-.08.13.12.23,2.59.32,5.41.64,8.18,1.15.33.07-.07.16,0,.19,2.69.19,4,.57,3.48,1,.76,0,2.59.2,3.44.22,2,.86,12.69,2.16,16.67,2.47,3.24.61,6.49,1.2,9.76,1.75,5.84,1,8.26,1.29,8.66.79l7.8,1.22.08-.52.16,0-.08.52a1.92,1.92,0,0,0,2-1,1.84,1.84,0,0,0,.2-.54l.06-.36.1-.62.39-2.49.78-5c.21-.68.41-1.46.64-2.35a104.14,104.14,0,0,0,2-13.42l.78-6.22L86,79.81c.4-1.5.86-2.86,1.17-4.6.41-2.36.37-4,.66-6.31,1.53-12.16,4.41-22.34,5.75-33.9.81-7,1.56-13.16,2.65-20.36l.14-.94.07-.48A2,2,0,0,0,96.33,12.35ZM25.94,139.89l4.54.71.13.08Zm12.49-8v0h0Zm.31-1.4.13-.56-.08.55Zm3.11,12.11,0,0,.4.08Zm53-129.48-.15.93c-.74,3.27-1.45,5.69-2,9.36-.62,3.85-1,8.07-1.51,12-.31,2.3-.48,3.84-.62,5.29l-3,18.87c-1.43,6.92-2.24,12.94-3.4,20.39-.58,3.68-1.49,8.72-1.69,12.1v.13l-4.29,27.45L76,133.37l-1.07,6.86-.54,3.43-.27,1.72,0,.14,0,.07a.35.35,0,0,1-.09.11.35.35,0,0,1-.27.07l-.16,1a1.72,1.72,0,0,1-.15-.12l.15-.93-.51-.08a1.07,1.07,0,0,1,.15-.18c-4.6-.67-8.33-1.11-12.3-1.77-4.55-1.06-9.51-1.83-14.65-2.55l-5-.77-3.13-.48,3.63-4.57L39.36,135a4,4,0,0,1,.07-.7,3.49,3.49,0,0,0,.46-1.76c0-.19.05-.39.09-.61.11-.75.18-1.52.33-2.27a3.51,3.51,0,0,0,.19-1.25.72.72,0,0,0-.05-.14c.1-.73.15-1.47.17-2.22l.07-.48.11-.13a2.46,2.46,0,0,0,.76-1.82c.18-2,1-4.06.67-6.06-.07-.4-.12-.77-.18-1.14l.47-3.15a.61.61,0,0,0,.12-.5c.85,0,.92-1.77.81-2.38,0,0-.1,0-.15,0A6.76,6.76,0,0,1,43.7,108c-.13-.23-.17-.5-.3-.7l.12-.79c.28-.22.65-.35.84-.64-.58-.3-.47-1.07-.39-1.51,0-.2.14-.5.21-.8a.18.18,0,0,1,.11,0,2.41,2.41,0,0,0,.12-.77l.06.05a.62.62,0,0,0-.27-.85l0-.23a3.26,3.26,0,0,0,.6-1.09,11.26,11.26,0,0,0-.06-1.5,2.49,2.49,0,0,0-.06-.66l.34-2.3a8.1,8.1,0,0,0,.52-2.46,3.12,3.12,0,0,0,.07-1.49v0l1-6.68-1.16-.17-.18,1.21a2,2,0,0,0-.24.26c-.4.5-.23,1-.19,1.64,0,.26,0,.52,0,.77l-.64,4.33c-.15.17-.36.31-.41.52s.12.51.13.8C44,96.41,42.89,97.54,43,99a11.6,11.6,0,0,1,0,2.53c0,.3-.08.62-.12.93l-.55,3.74-.26.68a7.65,7.65,0,0,0-.19,2.32l-.08.53a2.06,2.06,0,0,1-.11.33,3.58,3.58,0,0,0-.38.86,3.83,3.83,0,0,0,.08.6,3.19,3.19,0,0,0-.12.48,1.64,1.64,0,0,0-.32,1,.86.86,0,0,1,.26.16s0,.07,0,.1-.24.32-.38.46A2.56,2.56,0,0,0,41,114a1.25,1.25,0,0,0-.32,1.49,1.67,1.67,0,0,0-.09.4,2.85,2.85,0,0,0,.18,1l0,.13a1.46,1.46,0,0,1-.69.94l.12.22a1.38,1.38,0,0,0,.15,1.58v0c0,.11-.08.22-.12.33a1.11,1.11,0,0,0-.38,1.1,3.56,3.56,0,0,0-.1.6c-.08,1-.17,2-.29,3,0,.09,0,.19,0,.28a2.7,2.7,0,0,0-.22.68,1.29,1.29,0,0,0,0,.41,4.61,4.61,0,0,0-.08,1.85v0l-.16.47c-.05,0-.11,0-.16,0a3,3,0,0,1,0,1s-.12,0-.14,0c.12.35,0,.5-.37.39.08.1.1.33.17.45-.44.19-.36,1.53-.2,2a9.37,9.37,0,0,0-.34,1.17c-.14.71-.15,1,.26,1.11l0,.1-2.31-.34L38,139.9c-5.11-.79-10.24-1.56-15.36-2.4-3.28-.54-7.05-1.3-10.24-1.61-.4,0-.74-.05-1.1-.08l-9-1.34-.15,0-.05,0a.23.23,0,0,1-.08-.09.22.22,0,0,1,0-.12l.08-.54.32-2.26L3,126.88,3.6,123l.3-1.13A108.76,108.76,0,0,0,7,106.37c2.38-16.16,5.85-33.79,7.45-49.57l.94-9,4-25.85a29.24,29.24,0,0,0,.71-4.16c.61-.28,1.42-4.07,2.14-8.4l.52-3.3L23,4.46a2.22,2.22,0,0,1,.31-.87,2.29,2.29,0,0,1,1.35-1,2.17,2.17,0,0,1,.74-.08c.28,0,.68.07,1,.1s0-.14.18-.19c5.13.77,16.26,2.27,19.67,3.16,1.76.06,3.86.28,5.37.3l6.46,1a62.43,62.43,0,0,0,6,1.94c1.82-.54,8.19.44,11.83,1L82.55,11c.16.07.26.13.23.18,2.13.43,4.14.67,6.29,1a2.25,2.25,0,0,1-.36,0,39.3,39.3,0,0,0,4.1.59,13.51,13.51,0,0,0,1.5,0c.29,0,.21-.05.28-.08a.41.41,0,0,1,.18-.05.32.32,0,0,1,.07.14A.47.47,0,0,1,94.82,13.09Z"/><path class="cls-1" d="M85.25,56.86l.27-1.7L85,55.09v0l-.1,0L84,54.93,84,55,83.77,55c-.11,1-.09,1.84-.26,2.69a8.25,8.25,0,0,0-.75,3.16c-.05.34-.1.69-.16,1.08-.21,1.35-.37,2.71-.63,4.05a8.39,8.39,0,0,0-.36,2.23,1.49,1.49,0,0,0,.06.25c-.19,1.31-.32,2.62-.41,4l-.13.85-.16.23a5.56,5.56,0,0,0-1.16,3.28c-.4,3.53-1.71,7.28-1.39,10.82.06.71.1,1.36.15,2l-.88,5.62a1.43,1.43,0,0,0-.2.9c-1.14,0-1.37,3.2-1.28,4.27.06.06.14,0,.2.07-.14,1.12-.29,3.57-.75,4.27.15.41.19.88.35,1.23l-.22,1.4c-.39.41-.91.65-1.18,1.19.75.49.54,1.88.4,2.67-.06.36-.23.9-.34,1.43a.2.2,0,0,1-.15,0,5.76,5.76,0,0,0-.22,1.37.36.36,0,0,1-.08-.09c-.21.66-.13,1.23.3,1.5l-.06.4a7.18,7.18,0,0,0-.89,2,26.4,26.4,0,0,0,0,2.66,5.75,5.75,0,0,0,0,1.18l-.64,4.11a19.34,19.34,0,0,0-.9,4.41,7.38,7.38,0,0,0-.22,2.66v0l-1.87,11.94,1.54.24.34-2.17a3.82,3.82,0,0,0,.34-.48c.58-.91.39-1.86.39-2.93,0-.46,0-.92,0-1.38l1.21-7.74a2.91,2.91,0,0,0,.59-.95c.12-.51-.11-.9-.11-1.41,0-2.69,1.66-4.75,1.59-7.32A27.36,27.36,0,0,1,76,116.2c.07-.54.16-1.1.23-1.65l1-6.68c.14-.42.27-.83.4-1.23a18.28,18.28,0,0,0,.44-4.14l.15-1a4.81,4.81,0,0,1,.18-.6A8.19,8.19,0,0,0,79,99.38,8.73,8.73,0,0,0,79,98.32a7.61,7.61,0,0,0,.2-.85,3.82,3.82,0,0,0,.51-1.84c-.15,0-.22-.18-.33-.27s0-.12,0-.17c.18-.27.34-.58.55-.84a4.69,4.69,0,0,0-.17-.46,2.85,2.85,0,0,0,.54-2.66,4,4,0,0,0,.15-.71,6.36,6.36,0,0,0-.16-1.76l0-.23a3,3,0,0,1,1-1.71c-.05-.13-.1-.26-.14-.39a3.07,3.07,0,0,0-.08-2.81l0-.06c.06-.21.12-.4.19-.59a2.54,2.54,0,0,0,.59-2,8.53,8.53,0,0,0,.19-1.07c.19-1.76.39-3.58.63-5.44,0-.17.05-.33.08-.5a6.37,6.37,0,0,0,.35-1.22,3,3,0,0,0,0-.72,11,11,0,0,0,.25-3.3v-.05l.25-.85c.07,0,.14,0,.21,0A7.09,7.09,0,0,1,84,66c0-.07.16,0,.19,0-.13-.61.07-.89.53-.71-.1-.18-.11-.59-.2-.79.61-.37.61-2.74.43-3.64.21-.69.41-1.39.55-2.1C85.77,57.55,85.8,57,85.25,56.86Zm-1.35,8.61.15-1,.06,0ZM84.64,62h0l0-.09Z"/><path class="cls-1" d="M19.25,50.41,21.2,38l-1.54-.24L19.3,40a4.06,4.06,0,0,0-.35.5c-.58,1-.4,1.94-.41,3.05,0,.48,0,1,0,1.43L17.26,53a3.09,3.09,0,0,0-.6,1c-.12.53.11.94.1,1.47-.06,2.8-1.69,5-1.64,7.63a29.66,29.66,0,0,1-.2,4.68c-.07.57-.16,1.15-.24,1.72l-1.09,7c-.14.43-.28.87-.41,1.29a19.84,19.84,0,0,0-.47,4.31l-.16,1a5.21,5.21,0,0,1-.19.63,8.85,8.85,0,0,0-.59,1.62,9.44,9.44,0,0,0,.05,1.11,8.27,8.27,0,0,0-.2.89,4.14,4.14,0,0,0-.53,1.92c.15,0,.22.19.33.28s0,.12,0,.18c-.18.29-.35.61-.55.88a5,5,0,0,0,.17.48,3.08,3.08,0,0,0-.56,2.77,4.34,4.34,0,0,0-.16.74,6.85,6.85,0,0,0,.15,1.83l0,.24a3.17,3.17,0,0,1-1,1.79c0,.14.1.27.14.4a3.3,3.3,0,0,0,.06,2.92l0,.06c-.06.22-.13.42-.19.62a2.74,2.74,0,0,0-.61,2.06,9.26,9.26,0,0,0-.2,1.11c-.2,1.84-.42,3.73-.67,5.67,0,.17-.05.35-.08.52a6.89,6.89,0,0,0-.36,1.28,3.26,3.26,0,0,0,0,.75,11.87,11.87,0,0,0-.27,3.43v.06l-.26.89c-.07,0-.14,0-.21,0a7.69,7.69,0,0,1-.16,1.87c0,.07-.16,0-.19,0,.13.64-.08.92-.53.74.1.19.1.61.19.82-.61.38-.63,2.85-.45,3.79-.21.72-.42,1.45-.56,2.19-.26,1.32-.29,1.87.25,2L5,131.39l.52.08v0l.1,0,.93.15,0-.12.19.06c.12-1,.1-1.91.28-2.81a8.94,8.94,0,0,0,.78-3.29c.05-.35.11-.72.17-1.13.22-1.4.39-2.82.65-4.22A9.11,9.11,0,0,0,9,117.8a1.6,1.6,0,0,0-.05-.26c.2-1.36.34-2.73.44-4.12l.14-.89.16-.24a6,6,0,0,0,1.18-3.42c.42-3.68,1.76-7.59,1.46-11.27-.06-.74-.1-1.41-.14-2.1l.92-5.86a1.55,1.55,0,0,0,.21-.94c1.14,0,1.39-3.34,1.31-4.45-.06-.06-.14,0-.2-.07.15-1.17.31-3.72.77-4.45-.15-.42-.18-.91-.34-1.28L15.09,77c.39-.43.91-.68,1.19-1.25-.75-.51-.53-2-.39-2.78.06-.37.24-.94.35-1.49a.19.19,0,0,1,.15,0A6.26,6.26,0,0,0,16.62,70a.37.37,0,0,1,.07.09c.22-.69.14-1.28-.29-1.56l.07-.42a7.73,7.73,0,0,0,.9-2.05c.16-.87,0-1.86.06-2.77a6.21,6.21,0,0,0,0-1.22l.67-4.28a21,21,0,0,0,.93-4.6,8,8,0,0,0,.23-2.77ZM5.91,124.32l0-.08h0Zm.61-2.64-.06,0,.22-1.05Z"/><path class="cls-1" d="M86,44.68a13.54,13.54,0,0,0,.17-1.89l.1-1.89h-.53v-.08l-.1.08h-.95v.24l-.19-.05L84.48,44c-.11.91-.22,1.79-.38,2.69-.2.48-.39,1-.57,1.46l-.26-.23c0,.12-.45.2-.46.32s.46.28.45.4-.42.2-.45.31.22.22.33.33l-.17.5c-.22.52-.42,1-.62,1.59A13,13,0,0,1,81.71,53l-.06.12h0c-.06,0-.42.22-.48.24l-.51.22L81,54l.1.14c-.14.28-.28.55-.43.85a32.88,32.88,0,0,1-2.09,3.13L78.52,58c-.06-.06-.43.18-.52.13s-.19-.52-.28-.54a2.56,2.56,0,0,0-.53.11h-.11l0,0a2.4,2.4,0,0,0-.31-.52l-.32-.51,0-.07.43-.57a4.05,4.05,0,0,0,.3.51c.13.06.36-.17.5-.13s.37-.2.51-.14c-.09,0-.22-.5-.31-.52a1.66,1.66,0,0,0-.51.13,3.09,3.09,0,0,0-.47.11A11.24,11.24,0,0,0,77.55,55a6.38,6.38,0,0,0,1.4-1.45,5.76,5.76,0,0,0,.36-.82,1,1,0,0,0,.11.13l.49-.2a1.6,1.6,0,0,1,.47-.22c.08,0,.31.44.4.47a2.17,2.17,0,0,0,.47-.24c0-.06-.34-.4-.4-.46s-.32-.44-.4-.46-.41.2-.47.23a5.06,5.06,0,0,0-.46.22h0c.11-.37.2-.75.34-1.17s.33-1,.5-1.48a1.1,1.1,0,0,0,.27.22c.08,0,.36-.3.45-.29a2.34,2.34,0,0,1,.44.41s-.45.24-.46.29.42.3.44.42l.92-.6-.89-.82-.82-.72c.1-.31.22-.62.31-.94s.26-.75.37-1.13c.1.08.46.27.46.34s-.46.27-.42.33a2.74,2.74,0,0,0,.48.37l.48.38.39-.32s.05,0,.06.06.48.27.48.39c0-.12.41-.21.42-.34s-.42-.34-.48-.38l-.07-.05.06,0-1-.74L81.75,46l-.25-.18c.16-.58.3-1.17.45-1.76a12.86,12.86,0,0,0,.29-1.74,16.39,16.39,0,0,0,.17-1.77A13.46,13.46,0,0,0,82,37,29.58,29.58,0,0,0,80.79,33s0-.08,0-.09,0,0-.07,0c-.15-.37-.31-.73-.47-1.09,0-.13.1-.29.11-.33a1.52,1.52,0,0,0,.17-.5c0-.09.21-.43.15-.5a2.61,2.61,0,0,0-.61,0l-.44,0c-.23-.48-.47-1-.72-1.45-.13-.29-.29-.57-.45-.84.17,0,.4-.07.43,0a2.11,2.11,0,0,1,.13-.51c.12-.09.47.07.61,0s0-.4.13-.52.51.07.61,0a1.86,1.86,0,0,0,.12-.53c0-.05-.56,0-.61,0s.19-.46.12-.54-.5.08-.61,0,.17-.47.12-.54a2.52,2.52,0,0,0-.6,0,3.37,3.37,0,0,1-.61,0c.08.05-.13.43-.09.52s.53-.11.6,0-.15.43-.12.53-.09.4-.13.52a2.51,2.51,0,0,0-.13.51,1.32,1.32,0,0,1-.09.28c-.33-.55-.69-1.09-1-1.64a24.47,24.47,0,0,0-2.42-3.09l.45-.14a2.78,2.78,0,0,1,.58-.17c.05,0,0,.5,0,.53a3.31,3.31,0,0,0,.59-.16l.59-.16c-.07-.1,0-.37,0-.49l.39-.07.61-.1h0q.54.66,1,1.35c0,.07,0,.14,0,.17a.26.26,0,0,0,.13,0c.19.26.37.53.55.8l-.44.06-1,.16.06-.42-1.21.14-.08.52c.06.11-.17.43-.09.52a3.14,3.14,0,0,0,.61-.06,2.29,2.29,0,0,1,.61-.05.14.14,0,0,1,0-.08l.44-.09.61-.09.61-.08h.18a29.41,29.41,0,0,1,1.69,3l-.5,0c-.11.1,0,.45-.16.53s-.46-.11-.6,0c0,.11-.24.43-.17.52s.51,0,.6,0,.43.11.61.05.09-.46.17-.53.19,0,.33,0q.53,1.15,1,2.34H83a2.26,2.26,0,0,0-.6-.06c-.08,0-.1.47-.19.52s-.46-.13-.6-.06-.07.43-.19.5-.45-.11-.6-.05c0,.11-.26.4-.2.49s.51,0,.6.06.54,0,.6.07-.27.41-.2.49.5,0,.61.08-.25.4-.2.49a2.78,2.78,0,0,0,.59.1c.06,0,.18-.47.23-.5s.57.14.6.11a1.41,1.41,0,0,0,.21-.51c-.07-.1-.51,0-.61-.1l.19-.51.13-.36a28.87,28.87,0,0,1,1.08,4.48,1.18,1.18,0,0,0-.42-.12s-.07.08-.11.16l-.2-.06a1.07,1.07,0,0,0-.21.31c-.14-.06-.3-.13-.33-.1a1.79,1.79,0,0,0-.29.46l-.1.15a.52.52,0,0,0-.25-.09,2.82,2.82,0,0,0-.31.45,3.69,3.69,0,0,0,.56.21c.06,0,.1-.09.13-.16a.47.47,0,0,1,.25.08c.08,0,.12-.18.16-.29.14.07.29.16.34.14a.6.6,0,0,0,.16-.2l.21.08.58.2h0a28.39,28.39,0,0,1,.18,3.18h1.56A34.4,34.4,0,0,0,85.89,36c0-.35.06-.75.08-1.2a10.9,10.9,0,0,0-.62-3.19c-.38-1-.92-2-1.4-3l-1.52-2.62a32.25,32.25,0,0,0-12-12.08,6.83,6.83,0,0,0-1.8-1.46,13.3,13.3,0,0,0-2.94-.92c-.71-.2-1.4-.42-2.07-.66l-2-.56c-1.32-.45-2.67-.66-4-1a20.11,20.11,0,0,0-2-.29c-.68-.07-1.36-.18-2-.18s-1.37,0-2.07.08c-.35,0-.69,0-1,.09l-1,.22A42.17,42.17,0,0,0,40,12.4l-1.66.79-1.59.94a34.06,34.06,0,0,0-5.94,4.49A33.11,33.11,0,0,0,26.1,24.4a19.24,19.24,0,0,0-1.59,2.35A15.37,15.37,0,0,0,23.4,28.9c-.28.74-.53,1.48-.77,2.21s-.34,1.49-.5,2.21l-.23,1.08c-.06.36-.09.73-.14,1.09l-.33,2.11c0,.46-.09.91-.16,1.37L21,40.73a12.88,12.88,0,0,0,0,1.85,11.78,11.78,0,0,0,.43,2.29c.07.67.15,1.31.24,1.93a18.31,18.31,0,0,0,.22,1.85c.05.3.12.62.21,1a6,6,0,0,0,.46,1.3c.17,0,.35.23.52.33l.15.35c.13.66.22,1.41.39,2,.22.27.43.52.65.76a8,8,0,0,0,1.07,2.77,14.11,14.11,0,0,0,.91,1.36,6.83,6.83,0,0,0,1.1,1.06c.29.43.61.87,1,1.3a12.09,12.09,0,0,0,1.47,1.35,15.53,15.53,0,0,0,1.47,1.09l.39.34c.56.57,1.07,1.1,1.53,1.59a7.21,7.21,0,0,1,1.24,1.53l.77.31a12.83,12.83,0,0,0,2.8,1.76,7.4,7.4,0,0,0,2.84.69l.12.06c.41.23.83.37,1.24.56a9.29,9.29,0,0,0,2.08,1.1,13.72,13.72,0,0,0,2.2.46,7.22,7.22,0,0,0,.88.21c-.23,0-.27.09-.25.2.07.32-.51.59.09,1l.32.22-.07.49c-.08,0-.12,0-.06.07-.84-.1-.68.2-.5.32l.16,0c0,.1.16.34-.11.37.16.06.23.11.38.16l0,.12a7.19,7.19,0,0,0-.75,0c.6.12.59.24.57.31s-.08.07-.1.12h-.11c-.07,0,0,.08,0,.12l-.06,0c-.09,0,0,.11.37.18v0c-.17,0-.43.05-.45.12s.2.18.24.27a.35.35,0,0,0,.14.12l-.05.36c-.27.1-.19.23-.21.37s-.11.15.11.25h0l-.15,1,1.16.16,0-.19.2,0c.33,0,.09-.16,0-.26L48,77.78l.1-.68a1.21,1.21,0,0,0,.34,0s-.18-.1-.22-.15c-.24-.27.73-.33.42-.6s-.33-.3-.34-.44,0-.1,0-.15l.08-.59.17-.09c.19-.1-.06-.26-.1-.38v-.08l.07,0c.07,0,.27-.06.27-.11s-.12-.08-.15-.11a.13.13,0,0,0,.06-.07c.11,0,.28,0,.19-.14L48.6,74v0l.32,0-.18-.06c.34,0,.46-.1.13-.22,0,0,0,0,0-.06s-.18-.13-.3-.19v0c.1,0,.15-.09.56-.08L49,73.29c.22,0,.09-.19-.35-.29h0l.08,0c.33,0,.35-.07.23-.15a.1.1,0,0,0,0-.09,3.81,3.81,0,0,1-.09-.47,35.28,35.28,0,0,0,11.91-.58l1.09-.27,1.38-.23a9.87,9.87,0,0,0,1.36-.41,14.25,14.25,0,0,0,1.47-.62,32.94,32.94,0,0,0,3.4-1.56c.83-.54,1.67-1,2.41-1.64a.2.2,0,0,1,.13,0,.23.23,0,0,0,0-.14c.13-.11.26-.21.38-.32l.1-.07.92-.58c.08,0,.15,0,.17,0a.21.21,0,0,0,0-.09l.56-.36c.1,0,.07.13.19.12.49-.4.93-.91,1.42-1.36s1-.89,1.48-1.38c.12-.11.1.13.15.13.73-1.11,1.31-1.48,1.5-1a6.35,6.35,0,0,1,.44-.71,7.71,7.71,0,0,0,.41-.78,8,8,0,0,0,2.4-2.92A16.4,16.4,0,0,0,83.75,54l0,0,0,0,.21-.61c.37-.71.67-1.46,1-2.19a13.88,13.88,0,0,0,.8-2.29c.19-.7.38-1.29.48-1.8s.12-.94.14-1.28C86.41,45.14,86.31,44.79,86,44.68ZM79.94,31v0l0,0ZM76.5,22.74h0l.15,0A.32.32,0,0,1,76.5,22.74Zm1-.73a.68.68,0,0,1,0-.28l.23.26A.58.58,0,0,1,77.52,22Zm-7-6-.17.11a1.07,1.07,0,0,1-.35.17,1.24,1.24,0,0,0-.13-.35,2.56,2.56,0,0,1-.11-.38ZM66.24,13.8c-.13.1-.3.27-.35.31s-.45.31-.47.39.19.41.22.48a5,5,0,0,0,.21.47c.08.15.13.31.19.47.14-.14.32-.21.47-.36s-.17-.47-.19-.5a1.6,1.6,0,0,1-.21-.47c0-.08.45-.3.48-.38a1.51,1.51,0,0,0-.12-.3c1,.45,2,1,3.1,1.56-.13.09-.3.29-.39.29,0,.15.23.38.18.52s-.42.2-.5.33c.1.09.05.45.17.52s.41-.35.5-.33.08.18.1.32-.2.09-.21.13a1.67,1.67,0,0,0,.12.51c0,.07.06.49.11.5a4,4,0,0,0,.53-.29c.07-.13-.16-.37-.11-.51s0-.2-.09-.31c.11,0,.22-.1.23-.16a.4.4,0,0,0,0-.19c.12-.06.26-.12.3-.15s.47-.18.54-.28v0l.14.1c-.14.07-.36.12-.42.23a2.4,2.4,0,0,0,.16.51l.15.51.24-.13c0,.13.06.28.07.37s0,.5.08.53A3.11,3.11,0,0,0,72,18.2a2.58,2.58,0,0,0,.55-.24c.06-.05-.12-.46-.09-.54s0,0,.06,0c.24.16.48.33.71.47.39.25.73.51,1.08.7l.05,0a30.55,30.55,0,0,1,2.57,2.5c0,.15.09.39,0,.49s-.47,0-.59.13l0,.53a4.29,4.29,0,0,1-.41.14,3,3,0,0,0-.57.18l-.57.18-.25.09q-.84-.88-1.76-1.68l.09,0c.07-.13-.1-.41,0-.53s.47-.08.56-.2-.11-.41,0-.54.45-.09.56-.2c-.08-.08.07-.49,0-.55a2.29,2.29,0,0,0-.57.2,3,3,0,0,0-.57.22c-.09.13.13.38.05.52s-.48.1-.56.22a1.52,1.52,0,0,0,0,.44,30,30,0,0,0-4.28-3,16.65,16.65,0,0,0-2.07-1.28A15.64,15.64,0,0,0,62.13,15l-.43-.08.3-.36a4.82,4.82,0,0,0,.4-.45c.08-.12.37-.31.41-.45s-.31-.32-.3-.45.37-.3.42-.45l-.2-.28C63.93,12.86,65.09,13.29,66.24,13.8ZM62,12.18a.24.24,0,0,1-.11.09s-.09-.08-.14-.18Zm-3.44,0s-.34-.34-.34-.37a2,2,0,0,1,.31-.47l.37.05.19,0-.06.1-.36.49A.41.41,0,0,1,58.56,12.23Zm-19.93,3.2.07.53a.16.16,0,0,1,.09,0v0a1.8,1.8,0,0,0,.53.11l.52.11,0-1.22v-.62a.27.27,0,0,1-.13,0l0-.06.78-.36c1.46-.5,2.67-.47,4.23-1l.66-.19s0,0,0,.05.43.08.5.21-.12.45-.07.59c.11,0,.39.27.48.21s0-.11,0-.2l.35.16c.07,0,.42.28.47.25a2.77,2.77,0,0,0,.13-.58,2.62,2.62,0,0,0,.14-.59c0-.06-.34-.19-.44-.24a.86.86,0,0,1,0-.39h0c.08,0,.39.26.47.22a1.56,1.56,0,0,0,.09-.38c.79-.23,1.6-.41,2.39-.57l.46-.09h0a1.79,1.79,0,0,0,.45.3c.07,0,.38.33.44.3s.1-.5.2-.57-.15-.12-.25-.16h0l1.06-.17a15.15,15.15,0,0,1,1.88,0l0,0c0,.06-.31.51-.28.55s.37.36.41.34.17-.49.28-.55.13-.23.21-.35l1.81.09a3.62,3.62,0,0,1-.22.35c-.09,0-.29-.4-.4-.38a2.45,2.45,0,0,0-.31.52s.38.31.39.38-.32.4-.31.52.34.23.38.38l.31-.52L56.8,12l.06.07c.09.1.25.35.36.39s.24-.5.32-.51.24.37.36.39.23.4.34.38.07-.07.12-.16a3.74,3.74,0,0,0,.32.37l.34.41.35-.49a2.92,2.92,0,0,0,.37-.49c0-.08-.35-.32-.35-.41s.24-.28.33-.42l.26,0,.87.21-.21.26c.12,0,.2.43.32.42s.27-.43.39-.48l0,0h0a3,3,0,0,0-.23.3c0,.05.33.38.32.45s-.35.31-.39.46.19.45.31.45c-.13.16-.26.3-.38.46s-.37.38-.37.46a.4.4,0,0,0,.07.14,20.33,20.33,0,0,0-2.37-.34c-.6-.08-1.2-.18-1.8-.25-.39,0-.78-.08-1.17-.14l-1.51-.28h-.15l-.09-.06c-.09,0-.31-.37-.4-.34s0,0-.06.09-.15-.09-.16-.16.25-.51.22-.55-.36-.36-.41-.33-.12.5-.22.57-.24.42-.21.57.09.1.18.16h-.29l-.32,0a3.51,3.51,0,0,0,.21-.52,3.62,3.62,0,0,0,.23-.55c0-.14.26-.42.24-.55s-.38-.3-.43-.34-.39-.36-.44-.34-.2.47-.23.56l-.22.57c.06.14.39.15.43.31s-.23.41-.22.57c.08,0,.27.25.37.3a11.53,11.53,0,0,0-1.54.31.21.21,0,0,1-.08-.07s0,.05,0,.08c-.55,0-1.09.1-1.61.17a12.45,12.45,0,0,0-1.59.11,9.07,9.07,0,0,0-1.34.29h0a2.87,2.87,0,0,0,0-.4.37.37,0,0,0-.15-.08c0-.1,0-.19,0-.21a1.55,1.55,0,0,0-.48-.21c-.07,0-.44-.25-.49-.21s0,.14,0,.26c-.13-.06-.28-.14-.33-.1a.73.73,0,0,0,0,.29c-.07,0-.14-.08-.18-.05a3.15,3.15,0,0,0-.07.6.57.57,0,0,0,.22.11.74.74,0,0,0,0,.27c.08.13.39.05.48.17v-.24l.25.11.11,0a4,4,0,0,1-.26.39l-.3.13c-.58.06-1.21.16-1.79.19-.24.19-.45.38-.65.57a7.7,7.7,0,0,0-4.22,2c-.14,0-.31,0-.35,0s-.06-.5-.09-.6a3.65,3.65,0,0,1-.08-.6l-.07-.61,0-.16.19-.12a.62.62,0,0,1-.09.15A9.45,9.45,0,0,0,38.63,15.43Zm22.88-.59-.38-.07a1.05,1.05,0,0,1,.19-.23C61.39,14.54,61.45,14.71,61.51,14.84Zm-37,35.61c-.06-.31-.15-.6-.22-.91a5.14,5.14,0,0,0-.3-.94c.5-.32.2-2,0-3.95-.18-1-.18-2-.29-2.89,0-.33-.07-.64-.09-.93L24,41l.55.25c.15-.06.18-.37.33-.41-.18-.09-.38-.16-.55-.25a6,6,0,0,0-.55-.26l-.15-.08c0-.17,0-.32,0-.47a.28.28,0,0,1,.13.09c.14,0,.2-.4.35-.42s.51.32.54.29.37-.35.35-.4-.48-.19-.54-.3-.36-.32-.52-.31-.34.35-.38.41l-.16.16a16,16,0,0,1,.11-2c.12-.82.21-1.71.37-2.57l.13-.48.07,0c.08,0,.36-.29.41-.34s.38-.21.44-.32-.46-.32-.46-.39-.13.12-.26.19l.1-.34c.09.06.16.11.16.15s.4-.23.45-.31-.39-.42-.45-.41h0l0-.17a7.75,7.75,0,0,1,.75-1.57c0-.4.12-.84.19-1.27s.22-.81.27-1.16l.58-1.16.05,0c.09,0,.4-.22.49-.25l-.25-.33.16-.29a.7.7,0,0,0,.25-.1c.07-.07.49-.13.51-.22a1.45,1.45,0,0,0-.26-.38c.59-.46,1.13-.78,1.73-1.24.09.11.21.23.2.3.15,0,.39-.22.53-.17s.18.43.32.51c.09-.1.45,0,.52-.15s-.34-.42-.32-.51.46-.05.52-.15c-.12-.07-.19-.48-.31-.52s-.43.13-.52.15-.3.07-.44.13l0,0a2.51,2.51,0,0,1,.33-1.31c.13.11.15.45.29.53a2.4,2.4,0,0,0,.52-.15l.51-.14c-.2-.37-.38-.72-.56-1.08l-.09-.23.3-.36.19.47.24.56.25.56a2.69,2.69,0,0,1,.25.55c0-.05.49,0,.52-.07s-.3-.45-.25-.56.47,0,.51-.07a3.17,3.17,0,0,0-.23-.55s-.5.08-.52.06-.18-.47-.23-.57a2.79,2.79,0,0,1-.21-.56l-.11-.3a9.66,9.66,0,0,1,1.25-1.26c.29-.25.66-.55,1.08-.88a13.18,13.18,0,0,1,1.34-1c.09,0,.16,0,.18,0a19.38,19.38,0,0,0,1.7-1.18c0,.16,0,.35,0,.4a2.94,2.94,0,0,1,.09.57l-.1-.45c-.11.07-.44-.1-.54,0s.05.26.11.42h0s0,.1,0,.18-.46-.09-.51,0,.15.48.15.58a3,3,0,0,0,.16.58l.17.57v0h0a4.58,4.58,0,0,0-.52.44.23.23,0,0,0,0-.07c-.11-.1-.41.08-.52,0s0-.48-.15-.59-.41.07-.53,0c-.09.07-.48-.1-.54,0a2.6,2.6,0,0,0,.15.58c0,.06.48,0,.54,0s.06.46.16.58.07.28.1.43l-.87,1.08a2.17,2.17,0,0,0-.23.23,3.42,3.42,0,0,0-.2-.56l-.39-1.15c-.08.09-.47-.06-.53,0s.19.47.19.58a2.76,2.76,0,0,0,.2.57l.33.88a19.68,19.68,0,0,1-1.61,1.3,3.09,3.09,0,0,1-.12-.29c0,.06-.48,0-.52.08s.19.33.24.47l-.2.12c-.13,0-.26,0-.3,0l.05.1-.13.07-.27.67a5,5,0,0,0-1,1.27c-.11,0-.23,0-.27.07L29,25.74a2.8,2.8,0,0,0-.31-.51c-.07,0-.45.13-.52.16l-.53.16c0,.13.35.39.32.51s-.51.11-.5.19a2.47,2.47,0,0,0,.35.51l.35.5.36.49.13.2c0,.1-.06.2-.1.3l-.09-.08a1.76,1.76,0,0,0-.48.23c-.07.07-.46.15-.48.24s.35.4.4.46.32.43.4.45h0s0,.11,0,.15l-.06.11a8.52,8.52,0,0,0-.56,1c-.15.19-.27.39-.4.58h0c-.12-.1-.29-.36-.42-.41s-.33.3-.46.29-.29-.38-.44-.43l-.92.61c.05.15.41.28.44.42s-.46.21-.46.31a2.38,2.38,0,0,0,.45.41c.05,0,.39-.32.46-.31s.3.36.45.4.15-.11.27-.16v0a8.75,8.75,0,0,0-.44,1.89l0,.08L26,34.42a2.92,2.92,0,0,0-.48-.38c-.08,0-.33.34-.42.34s-.33-.35-.48-.38c0,.13-.42.21-.43.35a2.81,2.81,0,0,0,.48.38l.48.37c.17,0,.32.35.48.36s.21-.14.32-.24c0,.07,0,.14-.06.21l-.16,1.06c0,.28-.07.56-.1.85l-.2-.13a3.69,3.69,0,0,0-.51-.34c-.11,0-.4-.34-.51-.34s-.31.32-.39.38.5.31.51.34-.41.28-.39.38a2.45,2.45,0,0,0,.52.32s.33-.37.39-.38.39.33.52.32h0q-.12,1.33-.1,2.69c-.13,0-.28-.07-.31-.13l-.34.4c.13,0,.42.26.55.24L25.5,41c0,.13,0,.27,0,.4-.14,0-.41-.27-.54-.25s-.14.13-.22.24-.23-.07-.25-.11c0,.13-.36.3-.33.42l.23.11c-.07.08-.14.16-.12.19s.46.21.55.25l.27.11a1.24,1.24,0,0,0-.15.22s.53.19.58.2l.08,0c0,.25.05.5.08.75s-.19.24-.17.27.11.06.21.08v.07c-.08.1-.16.21-.15.25l.19.08c.09.59.2,1.17.33,1.76-.15,0-.4-.16-.54-.13,0,.12-.29.35-.24.47a.58.58,0,0,0,.22.06c-.08.11-.19.37-.22.41s-.29.43-.26.48a2.43,2.43,0,0,0,.58.15,2.71,2.71,0,0,0,.58.14.84.84,0,0,0,.18-.3l.14.53c0,.12,0,.25.06.37h0a1.55,1.55,0,0,0-.22.48,3.81,3.81,0,0,0-.21.42.29.29,0,0,1-.16,0c-.15.05-.47-.14-.61-.07s-.16.43-.19.5S25,50,25,50s.51,0,.6.06c.12-.1.06-.43.19-.51s.57.1.6.06a3.37,3.37,0,0,0,.18-.4.29.29,0,0,1,.16,0c0,.11-.28.39-.22.49a3.26,3.26,0,0,0,.54.09c0,.11.07.23.11.34a9.36,9.36,0,0,0,.59,1.24,22.39,22.39,0,0,0,1.75,3.19l-.26,0a2.75,2.75,0,0,0-.59.07c-.07.06-.07.45-.09.53s.55-.05.59-.07c0,.18-.06.35-.06.53s-.1.48,0,.52.51-.09.6-.1,0-.5,0-.52.31,0,.46-.06c.15.19.33.36.49.54,0,.14,0,.34,0,.38s-.5,0-.6.07a3.65,3.65,0,0,1-.61.06l-.61.06-1.19.08A29.16,29.16,0,0,1,24.49,50.45Zm3.89-21.6h0Zm.75-2s0,0,0,0l0,0ZM25.57,42.24h0l0,0Zm10,18.91a7,7,0,0,0,.63.51s0,0,0,0A7,7,0,0,1,35.53,61.15Zm-4.08.14-.19-.16a.31.31,0,0,1,.16,0S31.45,61.19,31.45,61.28Zm.31.26a1.84,1.84,0,0,0,.31-.12,2.47,2.47,0,0,0-.06-.54c0-.08,0-.5-.06-.53s-.46.22-.58.19c-.13.11-.46,0-.58.17h0l-.16-.14a29.92,29.92,0,0,1-2.28-2.81.91.91,0,0,0,.32,0c.08,0,0-.48.07-.55a2.93,2.93,0,0,1,.61-.06,2.42,2.42,0,0,1,.6-.07c.09,0-.15.47-.07.54s.49-.08.59-.08a1.24,1.24,0,0,0,.25,0,1.56,1.56,0,0,0,0,.52c0,.07,0,.49,0,.53a2.55,2.55,0,0,0,.59-.16l.58-.17a.74.74,0,0,1,.34-.09h0a.16.16,0,0,1-.07.1h0s0,0,0,.06,0,0,0,0h0c0,.14.08.35,0,.44s-.49,0-.59.13.06.41,0,.53c.07.09-.12.47,0,.54a2.59,2.59,0,0,0,.58-.13c.06,0,0-.48,0-.54s.46,0,.58-.14a.52.52,0,0,1,.28-.07l1.12,1-.35.14a3.06,3.06,0,0,0-.57.22.21.21,0,0,0,0,.12l-.5.15c.08.08-.08.47,0,.53s.48-.17.58-.18a2.54,2.54,0,0,0,.56-.18c0,.14,0,.33,0,.39s.47-.28.55-.23,0,.53.07.54a2.4,2.4,0,0,0,.55-.26l.19-.09c.27.23.4.43.39.59-.12,0-.44.28-.54.23s0-.47-.05-.51a3.16,3.16,0,0,0-.56.21s.06.5,0,.53-.48.16-.57.22a2.5,2.5,0,0,1-.54.19l-1.18-.82Zm2.15,1.54h0L34,63l.57-.22.57-.23a2.7,2.7,0,0,1,.56-.23s0-.07,0-.15l.2.09-.17.06c.06,0,0,.48.07.52s.46-.29.55-.24,0,.45.07.52l.52-.25a3.85,3.85,0,0,0,.56.57l-.16.11-.53.32.16.51c0,.07.1.49.16.51s.41-.3.52-.32a2.4,2.4,0,0,0,.51-.33l.26-.17.23.13c-.09.07-.17.13-.21.12s0,.44.13.52l-.52.3-.29.15C36.39,64.6,35.12,63.85,33.91,63.07ZM41.14,65,41,64.9h0ZM39,64.55a.18.18,0,0,1,0-.12l.39.21.23.11c-.13.09-.37.31-.45.3S39.09,64.62,39,64.55Zm4.76,3.54a39,39,0,0,1-4.46-1.93l.17-.11.5-.35a2.29,2.29,0,0,0,.49-.35s0-.12-.06-.21c.32.13.64.24.94.34A12.38,12.38,0,0,0,43,66l.38.17a.41.41,0,0,0-.1.12,2.22,2.22,0,0,0,.21.48c0,.06.17.48.22.48s.36-.34.43-.42l.24-.22a17.82,17.82,0,0,0,1.87.67l-.16.2a2.86,2.86,0,0,0-.39.46c0,.08.31.35.3.45a1.88,1.88,0,0,1-.31.38l-.19-.05c-.08-.13-.17-.31-.2-.31s-.12.1-.19.2Q44.41,68.32,43.76,68.09Zm2.44.76.07-.08.76-.92-.33-.49.14,0,.49.13-.07.1.3.42c.07.1.2.38.3.42s.29-.46.35-.48.22.43.31.42.23-.44.34-.49l-.08-.11c.27,0,.51,0,.71.05h0l-.1.17a3.49,3.49,0,0,1-.34.5c-.07.07-.27.48-.35.49s-.28-.45-.34-.41a2.75,2.75,0,0,0-.36.49l-.13.17C47.32,69.14,46.76,69,46.2,68.85Zm18,0a14.2,14.2,0,0,1-1.73.55h-.25a.39.39,0,0,1,0-.21c-.09-.12-.43-.07-.5-.2s.12-.57.08-.6a2,2,0,0,0-.49-.21c-.09.06,0,.51-.08.6s-.16.47-.09.6l0,0-1,0c-.53,0-1,0-1.58,0l-.34,0a.32.32,0,0,0,0-.17,2.83,2.83,0,0,0-.46-.29,3.79,3.79,0,0,0-.18.51l-.76.09h-.22c-.06,0-.12-.07-.14-.06s0,0,0,.07l-1.7.1-.82,0a2.32,2.32,0,0,0-.37-.3s-.1.16-.14.32H53a.19.19,0,0,1-.08-.1l0,.1q-.87,0-1.75-.1a3.75,3.75,0,0,0-.34-.32c-.05-.05-.31-.39-.37-.38s-.21.47-.33.52a.23.23,0,0,1,0,.05L49,69.47l0-.05.34-.49.66-1s-.07-.06-.11-.12c.28,0,.45-.15.52-.34.27,0,.54,0,.81.06-.07.13-.14.31-.19.39a2.62,2.62,0,0,0-.29.52,2.33,2.33,0,0,0,.35.39,2.77,2.77,0,0,0,.28-.52,2.64,2.64,0,0,1,.28-.52s-.12-.12-.2-.23l.31,0a.49.49,0,0,1-.11.21c.06,0,.28.4.35.37a3.8,3.8,0,0,0,.26-.54h0l1.37.06v-.53h.07a1,1,0,0,1-.07-.1v-.95h-.2a1.91,1.91,0,0,1,0-.2c-.9,0-1.71,0-2.5,0s-1.53-.16-2.3-.29a27.09,27.09,0,0,0-2.65-.92c-.89-.34-1.83-.62-2.77-1l-1.76-.81a28.17,28.17,0,0,1-5.1-3.38c0-.16,0-.33,0-.51l-.34.16c-.15-.13-.31-.26-.45-.4a16.08,16.08,0,0,1-1.35-1.48l-.68-.74a8,8,0,0,0-.65-.71,4.08,4.08,0,0,0-.33-.27,12.28,12.28,0,0,1-1-1.41l-1-1.46A31.41,31.41,0,0,1,29,49.58c-.16-.44-.34-.87-.49-1.31a.33.33,0,0,1,.1-.21l-.15,0v-.37c0-.83,0-1.49,0-2.16h0c0-.2,0-.41,0-.62,0-.45-.07-.91-.15-1.43l-.12-1.77a21.44,21.44,0,0,1,1.66-9.24,41.21,41.21,0,0,1,4.61-8.11c.36-.49.68-1,1.07-1.43l1.15-1.29a26.68,26.68,0,0,1,8.89-4.8,6.37,6.37,0,0,0,1.6-.37c.14.26.58.35,1.18.33a18.92,18.92,0,0,0,2.21-.13c.81-.14,1.69-.12,2.47-.23s1.47-.11,1.93-.16c.08-.07,0-.14.07-.21.49,0,1.14,0,1.84.07l2.2.27a11,11,0,0,1,3.39,1.12c.69,0,1.52.15,2.12.23.76.37,1.56.67,2.28,1.11a17.37,17.37,0,0,0,1.53,2.07,3.06,3.06,0,0,1,2,.56,18.91,18.91,0,0,1,2,1.61c.43.47,1.08,1.25,1.7,2,0,.08,0,.14,0,.17.43.72,1,1.26,1.47,1.93a.5.5,0,0,1-.14-.06c.54,1.08,1.22,1.77,1.79,1.87l.33.65c.18.64.34,1.18.45,1.76a9.89,9.89,0,0,0,.47,1.82c.25.7.47,1.43.77,2.16a14.39,14.39,0,0,1,.63,2.25c.22.87.24,1.47.38,2a26.79,26.79,0,0,1-.07,3.7A26.35,26.35,0,0,1,79.4,47c-.47,1.29-1,2.43-1.49,3.62L77,52.34A18.32,18.32,0,0,1,76,54.13a19.89,19.89,0,0,1-1.43,1.93c-.48.69-1,1.28-1.36,1.87l0,0c-.22.23-.44.44-.67.66l0,0c-.34,0-.64.08-1,.09l.24.53,0,.09a27,27,0,0,1-18,6.8v1.56l.6,0c0,.11-.07.22-.09.26l-.22.55c.07.15.34.18.4.35s-.25.42-.23.55a1.77,1.77,0,0,0,.41.34s.2-.53.22-.57a2.8,2.8,0,0,1,.21-.57s.36.27.41.3.36.33.42.31.1-.5.19-.57c-.06-.14-.38-.16-.42-.31s.2-.42.18-.57c-.05,0-.11-.06-.17-.12l1.07-.08a.25.25,0,0,1-.06.13c0,.16-.23.43-.2.57s.37.26.43.3.38.32.44.3.1-.5.19-.57c-.06-.13-.39-.15-.43-.3a4.56,4.56,0,0,1,.17-.5l.13,0a.24.24,0,0,0,0,0c0,.14.36.13.43.26,0-.09,0-.23.09-.36l.4.06a4.34,4.34,0,0,0-.15.51c-.13-.06-.32-.15-.34-.21,0,.18-.17.41-.14.59s.4.14.44.26S58,69,58,69.16c.12,0,.34.3.46.26a2.75,2.75,0,0,0,.14-.59l.11-.5c.12.09.32.22.37.2a2.59,2.59,0,0,0,.15-.59c0-.16.08-.32.12-.47A8.2,8.2,0,0,0,62,66.9a3.12,3.12,0,0,0-.08.5,1.72,1.72,0,0,0,.48.21c.1-.07,0-.51.09-.6a.7.7,0,0,1,.05-.33c.58-.24,1.15-.51,1.75-.8.79-.35,1.53-.83,2.28-1.22l.15-.08c.06.12,0,.43.06.55a2.72,2.72,0,0,1,.06.59,2.76,2.76,0,0,0,.05.6c.06.07.45.08.53.11s0-.55-.06-.59l.31,0a1,1,0,0,0,0,.42c.13.11.4,0,.52.11s0,.47,0,.59c-.53.29-1.07.57-1.62.83-.06-.14.09-.44,0-.58-.11.05-.43-.23-.52-.15s0,.5,0,.6a1,1,0,0,1,0,.41C65.44,68.4,64.8,68.66,64.16,68.89Zm4.6-2.37s.13,0,.25,0l-.24.14A.57.57,0,0,1,68.76,66.52Zm-9.87.95a.69.69,0,0,1-.07.21c0,.05-.27-.19-.39-.25Zm-3.48.13c0,.16-.06.35-.11.37s-.32-.27-.39-.31l-.05,0Zm13.9-1.21c0-.14-.07-.31,0-.37s.38.11.51.1Zm6.16-4.67-1.74,1.42h-.1a.59.59,0,0,0-.07-.31l-1.08,0,.25,1.13a8.48,8.48,0,0,0-.9.74c-.14.12-.24.25-.35.37q-.82.54-1.66,1.06a3.26,3.26,0,0,0-.05-.57,3.37,3.37,0,0,1-.07-.61c-.05.08-.44-.12-.52-.08s.12.53,0,.59-.43-.13-.53-.11a1.61,1.61,0,0,1-.52-.11l-.37-.09c0-.15,0-.34,0-.4s-.39,0-.51-.07,0-.16,0-.29c.76-.41,1.51-.84,2.24-1.31l.16.64h-.05a3.14,3.14,0,0,0,.08.6,2.29,2.29,0,0,1,.07.61c.05,0,.44.06.53.07l.53.06-.09-.61c.06,0,.12,0,.13,0a2.55,2.55,0,0,0-.14-.59l-.15-.59c-.11-.14,0-.46-.16-.58a.61.61,0,0,0-.26,0,23.34,23.34,0,0,0,2.28-1.77l0,0c.09.18.13.38.21.56a3.07,3.07,0,0,0,.2.57c.07.05.45,0,.53,0s-.18-.53-.21-.57.44.05.54,0-.27-.48-.22-.56.53,0,.54-.05a2.4,2.4,0,0,0-.24-.56l-.18-.4.49-.49c.14.06.4-.11.52,0s.09.47.22.56.41-.13.53,0,.1.45.21.56c.08-.08.49.05.55-.05a2.29,2.29,0,0,0-.22-.56,3,3,0,0,0-.24-.57c-.13-.08-.37.14-.52.07s-.11-.48-.24-.56a.61.61,0,0,0-.23,0l.72-.76c.23-.31.47-.61.71-.91.09.12.2.25.18.31s-.52.06-.51.13A2.69,2.69,0,0,0,76,58l.3.53.51-.14.08,0a2.5,2.5,0,0,0,.25.54c.05.06.45-.13.54-.1s.1.15.13.28A29.63,29.63,0,0,1,75.47,61.72Zm2.49.06a16,16,0,0,0,1.45-1.66l.09,0A16.11,16.11,0,0,1,78,61.78Zm4.72-6.14h0l.1-.17Z"/><path class="cls-1" d="M65,15.08s.2.49.24.47a2.91,2.91,0,0,0,.45-.41,1.75,1.75,0,0,0-.25-.47c-.07-.06-.16-.46-.25-.47s-.39.36-.45.41-.42.34-.44.42.26.32.25.47C64.68,15.48,64.89,15.08,65,15.08Z"/><path class="cls-1" d="M83.76,44.37c0-.11.41-.27.38-.39s-.5-.2-.52-.32.43-.33.38-.39a2.4,2.4,0,0,0-.52-.3l-.53-.29-.38.38c-.09.09-.34.26-.38.37s.51.23.52.3-.37.25-.38.37-.4.25-.37.35.16.12.3.19c-.09.07-.37.29-.36.34s.46.22.51.34.36.35.51.35.36-.32.39-.37-.5-.3-.51-.35.36-.25.39-.36l.2.14c.18.11.34.23.51.34.06-.14.36-.23.39-.38S83.78,44.45,83.76,44.37Zm-.73.13.09.06Z"/><path class="cls-1" d="M25.79,33c0-.11-.42-.28-.45-.4s-.3.32-.45.3c0,0,.42.39.45.4A2.86,2.86,0,0,0,25.79,33Z"/><path class="cls-1" d="M50,13c-.07,0-.37-.32-.45-.3a3.49,3.49,0,0,0-.18.57c0,.06.39.26.44.3s.37.19.43.3c0-.08.24-.49.19-.57S50.14,13.11,50,13Z"/><path class="cls-1" d="M78.75,57.34a2.56,2.56,0,0,0,.52-.15,2.7,2.7,0,0,0-.3-.53c-.13-.12-.16-.43-.31-.52s-.4.2-.52.15c.09,0,.25.44.31.52S78.64,57.28,78.75,57.34Z"/><path class="cls-1" d="M27.78,55.63c.1-.11,0-.45.12-.54s.56.05.61,0a1.8,1.8,0,0,0,.13-.53l.13-.52H26.92c0,.15-.17.38-.13.53s.56-.05.62,0-.18.42-.12.53-.2.45-.12.54S27.68,55.56,27.78,55.63Z"/><path class="cls-1" d="M83.31,38c-.08,0-.26.39-.31.45s-.33.38-.31.44.5.13.57.24c.14-.05.16-.41.31-.44s.53.27.57.24a1.84,1.84,0,0,0,.31-.46c0-.12-.5-.13-.57-.24S83.46,38,83.31,38Z"/><path class="cls-1" d="M52.82,68.86c-.11,0-.16.48-.26.54l.39.35c0-.13.27-.41.26-.55A2.48,2.48,0,0,0,52.82,68.86Z"/><path class="cls-1" d="M54.07,43.56a.44.44,0,0,0,.26,0,.27.27,0,0,0,.12-.1.69.69,0,0,0,.49-.42h0l.17-.05s0,.06.07.08a.71.71,0,0,1,.21-.29s.06.06.07.07c0-.16.09-.15.26,0,0-.07,0-.16,0-.22.29.1.41-.46.32-.67a1.22,1.22,0,0,0,.24-.38c.09-.25.07-.38-.21-.42,0-.11,0-.21,0-.32H55.3v0h-.1c0,.13.08.25,0,.36a.4.4,0,0,0-.25.36l-.06.12a1.38,1.38,0,0,1-.3.41c-.08.06-.2.06-.22.18a.28.28,0,0,0,0,.06l-.41.33-.11,0,0,0c-.22-.26-.28-.29-.45-.25a.86.86,0,0,1-.56-.15.94.94,0,0,0-.62-.13,1.3,1.3,0,0,1-.34,0,1.94,1.94,0,0,1-.38-.66c0-.05.05-.1,0-.13.52-.17.35-.43.24-.57h-.11c0-.13-.07-.46.14-.49a3,3,0,0,1-.19-.24,1.57,1.57,0,0,1,.09-.17c.17,0,.39.12.5.13-.32-.27-.2-.42-.12-.49a1.77,1.77,0,0,1,.18-.08l0,.05c.07,0,.09-.06.14-.09l0,0c.1,0,.1-.1,0-.32l0,0c.14.05.26.19.35.17s.16-.2.27-.25a.46.46,0,0,0,.14-.12,1.83,1.83,0,0,1,.55.05c.15.21.31.21.5.32s.16.18.34.13h0a2,2,0,0,1,.64,1.44h.78a3,3,0,0,0,0-.41.73.73,0,0,0,.12-.12c.17-.24,0-.39-.2-.55l-.2-.2h0l.11-.09.22.07c.38.09.38-.24.48-.49s.09-.22.14-.32l1.35-1.19c.14,0,.31.13.4.09s0-.27.08-.39c.28-.61,1.3-.24,1.51-.89a2.35,2.35,0,0,1,.51-1l.28-.27,1.17-1,.32-.08c.37-.1.43-.5.62-.74l.17-.15a.44.44,0,0,1,.15,0c.12,0,.37,0,.45-.06s0-.2.07-.28a.58.58,0,0,0,.18-.1c.18,0,.34.07.44-.16a1.67,1.67,0,0,1-.15-.24l0,0a3.7,3.7,0,0,1,.36.09,2,2,0,0,0,0-.2c.35.15.62,0,.53-.34a.3.3,0,0,0,.15-.09c.1-.11.07-.32.08-.5l0,0a.71.71,0,0,1,.68.13l0-.17c.26.05.45-.3.23-.71h0l.15,0c.34.13.46,0,.49-.15a.61.61,0,0,0,.2-.15c.27-.31.54-.64.84-1L68,29a.56.56,0,0,0,.3-.1.28.28,0,0,0,.08-.16.88.88,0,0,0,.44-.65h0l.21-.07s.07.08.11.11c.06-.13.11-.29.25-.35s.08.09.1.11c0-.22.12-.17.34.12,0-.1,0-.2,0-.29.35.24.57-.32.57-.63a1.81,1.81,0,0,0,.48-.2c.25-.17.31-.28,0-.6l.3-.26L71,25.7h0l-.05,0-.47-.53,0,0L70.34,25c-.15.18-.22.39-.39.5a.69.69,0,0,0-.69.34l-.19.17c-.24.2-.45.44-.71.63s-.37.13-.4.34a.36.36,0,0,0,0,.09,4,4,0,0,0-.59.72l-.15.13-.1,0c-.5-.17-.67-.12-.91.16-.54.62-1.57.81-1.74,1.82,0,.2-.07.38-.11.56l-1,.86c-.1,0-.18,0-.19.1-.58-.61-1,0-1.06.33,0,0,.07.08.1.12-.18.19-.48.69-.79.61,0,.18,0,.31.06.48l-.25.22a3.39,3.39,0,0,0-.72-.35c.34.52.1.74,0,.85s-.2.09-.31.16l-.08-.07c-.13,0-.17.12-.24.21l0-.06c-.17,0-.19.22,0,.51l-.07.06c-.24,0-.49-.12-.64,0s-.16.43-.27.61a.61.61,0,0,0-.1.29l-.72.63c-.44,0-.6.31-.88.56s-.39.22-.36.51h0L55,38.67a2.54,2.54,0,0,0-.22-.18c0-.1,0-.25-.07-.29s-.21,0-.32,0a1.45,1.45,0,0,1-.69-.31.71.71,0,0,0-.75-.08c-.3.18-.51.36-.77.5l-.27.16a2.69,2.69,0,0,0-.88.9,1.51,1.51,0,0,0-.21.17c-.24.22-.15.54-.15.79l0,.18a.42.42,0,0,1,0,.11c-.05.08-.18.22-.17.32s.09.13.13.2a.58.58,0,0,0,0,.17c0,.14-.14.23,0,.4a1,1,0,0,1,.19,0l0,0-.13.24.15,0a.37.37,0,0,0-.06.31.74.74,0,0,0-.67.36l-.19.18c-.25.21-.47.46-.73.65s-.38.14-.41.35a.37.37,0,0,0,0,.09,4.3,4.3,0,0,0-.61.74l-.16.14-.1,0c-.51-.16-.69-.1-.93.18-.57.65-1.62.86-1.81,1.89,0,.21-.08.39-.13.57l-1,.9c-.1,0-.19,0-.2.11-.58-.61-1,0-1.09.35,0,0,.07.08.1.12-.19.2-.51.72-.82.64,0,.18,0,.31.05.48l-.26.22A3.32,3.32,0,0,0,41,50c.34.52.09.75-.06.86s-.21.1-.32.17l-.08-.07c-.13,0-.18.13-.25.22l0-.06c-.18,0-.19.23,0,.52l-.07.06c-.24,0-.5-.11-.66,0s-.17.44-.29.62a.65.65,0,0,0-.11.3l-.75.66c-.45,0-.62.33-.91.59s-.41.23-.38.53h0l-2.18,1.91.77.88.39-.35.23.07c.39.09.39-.25.5-.51s.1-.22.15-.33l1.41-1.23c.14,0,.32.13.4.09s0-.28.09-.4c.3-.63,1.34-.27,1.56-.93a2.51,2.51,0,0,1,.54-1l.29-.28,1.22-1.07.33-.09c.38-.11.45-.52.65-.77l.17-.15a.47.47,0,0,1,.15,0c.13,0,.38,0,.46-.07s0-.2.08-.29a.62.62,0,0,0,.19-.1c.19,0,.35.06.45-.17a1.61,1.61,0,0,1-.14-.24l0,0a3.66,3.66,0,0,1,.37.09,2,2,0,0,0,0-.21c.35.14.63,0,.55-.36a.32.32,0,0,0,.15-.09c.11-.12.08-.33.1-.51l0,0a.72.72,0,0,1,.69.12l0-.17c.26,0,.46-.32.25-.72h0l.16,0c.35.13.47,0,.51-.16a.66.66,0,0,0,.21-.16c.28-.33.57-.66.88-1l.09-.08a.6.6,0,0,0,.31-.11.3.3,0,0,0,.08-.17,1,1,0,0,0,.46-.67h0l.22-.07s.07.08.11.11c.06-.14.11-.3.26-.36s.08.09.1.11c0-.22.13-.18.35.11,0-.1,0-.2,0-.3.35.24.59-.34.59-.66a1.93,1.93,0,0,0,.5-.22.48.48,0,0,0,.21-.23.38.38,0,0,0,.36-.14h0l.09.09c.06.25.19.31.34.25a.5.5,0,0,0,.21.05A3.29,3.29,0,0,0,54,43.58Zm1.79-1.44h0Zm-.35.37h0l-.15.13ZM70.14,27.14h0Zm-.54.28,0,0-.21.12Zm-19.44,17,.18-.16,0,0Zm.73-.45h0Z"/><path class="cls-1" d="M37.34,29.47c-.08.28,0,.39.18.45l.11.1a3.5,3.5,0,0,1,.41.4c.06.08,0,.26.21.23l.07,0a1.55,1.55,0,0,0,.5.28l.08.08,0,.09c-.21.44-.19.56,0,.67.43.27.43,1,1.23.91l.44-.05.56.56c0,.08,0,.14.06.12-.58.61-.13.79.11.75l.12-.11c.13.09.49.21.38.47.15-.08.25-.09.4-.17l.14.14a4.81,4.81,0,0,0-.39.65c.47-.4.61-.27.68-.18s0,.14.08.2l-.07.08c0,.09.08.1.13.14l-.05,0c0,.12.15.09.42-.14l0,0c0,.19-.17.42-.1.51s.33,0,.45.06a.39.39,0,0,0,.22,0l.41.41c0,.33.17.39.33.55s.12.25.36.16h0L46,38.08l.83-.83L46.6,37a1.72,1.72,0,0,0,.09-.19c.13-.32-.14-.24-.33-.25l-.24,0-.77-.77c.06-.12.16-.28.13-.33s-.22,0-.31,0c-.46-.06,0-1-.5-1a1.17,1.17,0,0,1-.72-.16l-.18-.15-.66-.66c0-.08,0-.16,0-.23,0-.27-.34-.21-.51-.3l-.09-.09a.23.23,0,0,1,0-.11c0-.09.07-.3,0-.34s-.16,0-.22,0a.24.24,0,0,0-.05-.12c0-.14.1-.29-.07-.3a2.7,2.7,0,0,1-.22.18h0c0-.1.07-.19.13-.31l-.17.09c.17-.31.13-.5-.2-.33a.12.12,0,0,0,0-.09c-.08-.05-.25,0-.4.06l0,0c0-.14,0-.23.2-.56l-.14.07c.08-.22-.18-.27-.54,0h0a1,1,0,0,1,0-.11c.16-.3.11-.37-.05-.35a.23.23,0,0,0-.09-.12c-.22-.13-.44-.27-.65-.42l-.05,0c0-.08,0-.17,0-.21a.15.15,0,0,0-.12,0,.39.39,0,0,0-.46-.18h0l0-.15.11-.11c-.1,0-.22,0-.25-.11s.09-.09.1-.1c-.18.06-.12-.05.14-.3-.08.05-.16,0-.24.1.25-.33-.18-.37-.43-.29a.83.83,0,0,0-.1-.33c-.1-.15-.18-.18-.48.11l-.17-.17-.28.28h0l0,.05-.5.5h0l-.11.1C37.11,29.36,37.27,29.36,37.34,29.47Zm1.53-.23.07.13-.1-.1Zm-.17-.31h0v0Z"/><path class="cls-1" d="M42.24,25.75c-.08.28,0,.39.18.45l.11.1a3.51,3.51,0,0,1,.41.4c.06.08,0,.26.21.23l.07,0a1.55,1.55,0,0,0,.5.28l.08.08,0,.09c-.21.44-.19.56,0,.67.43.27.43,1,1.23.91l.44-.05.56.56c0,.08,0,.14.06.12-.58.61-.13.79.11.75l.12-.11c.13.09.49.21.38.47.15-.08.25-.09.4-.17l.14.14a4.82,4.82,0,0,0-.39.65c.47-.4.61-.27.68-.18s0,.14.08.2l-.07.08c0,.09.08.1.13.14l-.05,0c0,.12.15.09.42-.14l0,0c0,.19-.17.42-.1.51s.33,0,.45.06a.39.39,0,0,0,.22,0l.41.41c0,.33.17.39.33.55s.12.25.36.16h0l1.18,1.18.83-.83-.21-.21a1.72,1.72,0,0,0,.09-.19c.13-.32-.14-.24-.33-.25l-.24,0-.77-.77c.06-.12.16-.28.13-.33s-.22,0-.31,0c-.46-.06,0-1-.5-1a1.17,1.17,0,0,1-.72-.16l-.18-.15L48,29.85c0-.08,0-.16,0-.23,0-.27-.34-.21-.51-.3l-.09-.09a.24.24,0,0,1,0-.11c0-.09.07-.3,0-.34s-.16,0-.22,0a.24.24,0,0,0-.05-.12c0-.14.1-.29-.07-.3a2.67,2.67,0,0,1-.22.18h0c0-.1.07-.19.13-.31l-.17.09c.17-.31.13-.5-.2-.33a.12.12,0,0,0,0-.09c-.08-.05-.25,0-.4.06l0,0c0-.14,0-.23.2-.56l-.14.07c.08-.22-.18-.27-.54,0h0a1,1,0,0,1,0-.11c.16-.3.11-.37-.05-.35a.23.23,0,0,0-.09-.12c-.22-.13-.44-.27-.65-.42l-.05,0c0-.08,0-.17,0-.21a.15.15,0,0,0-.12,0,.39.39,0,0,0-.46-.18h0l0-.15.11-.11c-.1,0-.22,0-.25-.11s.09-.09.1-.1c-.18.06-.12-.05.14-.3-.08.05-.16,0-.24.1.25-.33-.18-.37-.43-.29a.83.83,0,0,0-.1-.33c-.1-.15-.18-.18-.48.11l-.17-.17-.28.28h0l0,.05-.5.5h0l-.11.1C42,25.64,42.17,25.64,42.24,25.75Zm1.53-.23.07.13-.1-.1Zm-.17-.31h0v0Z"/></g></g></svg>