<svg xmlns="http://www.w3.org/2000/svg" viewBox="0 0 327.74 571.31"><defs><style>.cls-1{fill:#1d1d1b;}</style></defs><title>Middel 1</title><g id="Laag_2" data-name="Laag 2"><g id="Layer_2" data-name="Layer 2"><path class="cls-1" d="M325.84,401.29c-2.72-1.41-8.15,2.05-8.52,3.76-.12.56.29.93,1.16,1.17a25.1,25.1,0,0,0,7.46.14c.86-.12,1.39-.26,1.64-.76A3.94,3.94,0,0,0,325.84,401.29Z"/><path class="cls-1" d="M233.14,527a2.71,2.71,0,0,1-1.76-1.9c-.63-2.31.12-6.91-.74-10.13a8,8,0,0,0-3.37-4.59,14.2,14.2,0,0,0-1.38-.88,15.61,15.61,0,0,0-5-1.92c-1.61-.25-2.7.13-3.14,1.16-.75,1.75.35,5.34.8,8.53a19.17,19.17,0,0,1-.65,8.72,17.12,17.12,0,0,1-1.37,3.22c-2.58,4.6-7.72,7.9-13,9.83-2.75,1-5.54,1.63-6.67-.22a9.58,9.58,0,0,1-.8-4.17c-.32-7.75,1.18-16.5,2.17-22.44.62-3.69,1-6.3-1.25-9.48-1.46-2-4-4.27-5.91-4.53s-3.22,1.55-4.42,3.58c-4.36,7.43-7.55,18-7.42,30.2.06,5,.67,10.19,0,13.18a2.85,2.85,0,0,1-2.47,2.63c-3.21.58-10.51-1.4-17-3.16-40.41-11-48.25-13.85-68.58-20.71-18.7-6.31-48-16-55.65-24.24a7.61,7.61,0,0,1-2.17-5c-.42-4.42.86-12.42,2.86-20,1.26-4.79,2.8-9.43,1.93-13.71-.5-2.45-1.79-4.78-1.22-6.29a2.42,2.42,0,0,1,.54-.79,16.75,16.75,0,0,0,1.87-1.66c1.53-2.07.24-6.58-2.63-8.76-1.66-1.26-3.86-1.74-4.9-.58-1.21,1.36-.82,5-1.5,6.41a1.09,1.09,0,0,1-.84.69c-.77.09-1.94-.7-2.93-.68-2.4,0-3.76,4.75-5.2,8.82-3.84,10.81-8.26,16.9-9,24.83-.5,5,.46,10.81-.54,16.49-.45,2.58-1.3,5.13-.79,7.45.75,3.43,4.5,6.33,8.24,7.44,3.07.92,6.14.64,9,1.07,7.34,1.08,13.67,6.69,20.75,9.84,8.63,3.83,18.37,4,27.13,6.91,8.25,2.74,15.63,7.92,23.67,11.7,20.11,9.49,44.32,10.27,63.83,17.29,10.39,3.74,19.46,9.26,33.77,10.11,5.48.32,11.72,0,13-3.46.74-1.91-.07-4.78-1.06-7.45a5.71,5.71,0,0,1-.58-2.42c.15-1.15,1.46-1.93,2.76-2.68,5-3,9.8-5.49,14.28-8.18a74.2,74.2,0,0,0,15.87-12.17c1.14-1.18,2.26-2.44,1.86-3.46C242.82,529.36,235.89,528.26,233.14,527Z"/><path class="cls-1" d="M308.07,407.87c-4.7-.79-6-1.62-8.54-.86-2,.61-4.83,2.29-8,3.81C282.73,415,271.16,418,263.21,417c-2.86-.35-5.24-1.2-7.17-.59-2.12.68-3.67,3.14-6.37,5.17-5.44,4.09-15.52,6.43-23.78,7.63-4,.58-7.64.9-10,1-1.31.06-2.26.06-2.77-1s-.58-3.63-.58-6c0-22.21,2.79-40.89,6.61-62.6,2-11.6,4.37-24.05,6.79-35.36,4.15-19.42,8.54-35.46,12-38,.28-.2.56-.32,1.28.12,2.51,1.53,10.37,9.71,15.25,12.43,3.91,2.18,5.92.86,5.94,3.23a24,24,0,0,1-.55,3.87c-5.43,28.78-7.42,56.82-12,84.81-.42,2.6-.87,5.21,0,7.81,1.13,3.45,4.52,6.9,7.07,7.75a2.8,2.8,0,0,0,3.31-.83c1.9-2.45,1.13-9,1.29-15.82.15-6,1-12.19,2.2-14.51a1.94,1.94,0,0,1,1.94-1.23c1.79-.09,5.28.67,9,0,4.66-.81,9.63-3.85,10.46-3.35,1.07.65-4.58,7.05-9,10.64-3.38,2.73-6,3.83-7.27,6.24-1.9,3.77-.29,10.72,3.36,15.37,3,3.81,7.39,6.07,11.35,5.48s7.3-3.82,10.13-7.76c3.48-4.82,6-10.67,9.14-12.51,1.54-.92,3.22-.83,4.47-1.49,2.55-1.35,3.3-5.8,3.85-11,1-9.79,1.34-22.22,1.54-33.51.23-13.21.31-24.87.13-37.42a16,16,0,0,1,.75-6.19c.83-2.29,2.57-4.81,3.94-7.25,4.87-8.71,5-16.39,3.07-22.8-2.46-8-8.27-14.06-14.7-18.81a63,63,0,0,0-32.56-12.32,72.54,72.54,0,0,0-15.45.4c-9.74,1.26-20,4.43-26.54,9.61a11.89,11.89,0,0,0-3,3.17,4,4,0,0,0-.4,1,12.4,12.4,0,0,0,0,4.26v2.61c-.36,5.07-2.7,12.38-4.84,19.44-10.78,35.65-16.23,64.64-21.07,93.56-3.12,18.66-6,37.28-5.09,59.09.14,3.35.36,6.77,2,9.36,2.61,4,8.77,6.06,13.22,4.69,2.56-.8,4.55-2.71,6.86-3.89,2.58-1.33,5.56-1.75,8.89-2,2.56-.22,5.32-.37,8.27-.79,6.08-.88,13-2.94,14.91-2.28.58.2.72.63.82,1.24.65,4.06-.52,15.82-.38,27.11a34.62,34.62,0,0,1-.12,5c-.34,2.2-1.37,3.22-3.83,3.94-3.83,1.1-11.13,1.46-15.45,3.51a13.72,13.72,0,0,0-4.22,3.22c-.78.86-1.4,1.65-1.94,2.15a3.46,3.46,0,0,1-2.12.94c-2.84.42-9.15.21-15.42-.19-13.3-.85-26.38-2.53-31.27-7a3.87,3.87,0,0,1-1.3-2.06c-.24-1.11.07-2.6,0-4.1-.17-2.36-1.41-4.74-2.36-7.42-3.73-10.54-3.07-25.85-1.9-39,2.18-24.65,6.14-41.81,8.5-61.46,2.2-18.35,3-38.88,5.86-58.59,3.24-22.29,9.1-43.55,12.08-62,1.74-10.81,2.5-20.65,4.49-28.59a23.55,23.55,0,0,1,1-3.18c1.58-3.86,4.83-7,9.5-9.75a69.61,69.61,0,0,1,14.93-6.12c11.49-3.45,25.48-5.65,38.58-6.69a30.79,30.79,0,0,1,3.47-.15c5.26.18,4.6,3.71,3.71,11.14-1.55,12.94-3.79,37.71-.34,38.26h.12c2.23,0,6.6-9.21,9.37-17.52,4.86-14.59,4.77-26.4-1.26-31.82-2.57-2.31-6.21-3.46-10.09-4.13-9.52-1.63-20.53-.35-31.36,1.22-4.1.59-8.17,1.23-12.2,2-16.7,3.42-32.54,10-45.88,30-4.78,7.16-9.23,16-5.32,17.91,1.34.64,3.66.46,4.46,1.74.66,1,.32,3,0,5-2.56,14.68-5.17,25.86-7.17,37.9C168.69,298.5,167,320.4,164.45,342c-3.21,26.71-7.85,53-9.88,84.3-1,15.14-1.34,31.47,2.79,40.19,1.41,3,3.34,5,1,5.24a22.09,22.09,0,0,1-5.81-.91c-5.11-1.3-11.43-3.74-13.5-5.51a2.74,2.74,0,0,1-1-1.94c-.62-4.21,1.34-16,.79-23.28-.32-4.28-1.5-7.06-3.66-11.24-2.8-5.43-7.26-13.24-12.26-16.44-3.77-2.42-7.86-2.2-10.77,1-4.42,4.92-6.14,16.8-5.86,26,.13,4.13.66,7.73,0,9-.3.59-.86.68-1.74.45-4-1.06-14.73-8.79-18.53-13a5.8,5.8,0,0,1-1.84-4.33c0-3.16,1.68-8.45,2.33-13.66.79-6.36.08-12.6-2.82-16.77-2.69-3.88-7.28-6-11.24-8.29-1.68-1-3.24-2-5.2-1.8-2.74.28-6.25,2.91-7.56,5.72-1.92,4.1.86,8.6-.91,12.54-.5,1.14-1.39,2.23-2.16,2.39-1.63.35-2.76-3.42-3.49-7.11-2.52-12.73-.28-24.51,1.35-26.29.22-.25.44-.3,1-.08,2.16.92,9.62,6.63,14.86,8.53,3.45,1.25,5.94.85,6.78-.88,2-4.12-5.4-15.85-10.43-24.23-4.85-8.08-7.5-13-9-16.68a26.32,26.32,0,0,1-1.73-5.53c-2.27-11.4-2-38.84-.13-64.77,2.54-35.37,8-67.9,14.18-100,1.91-10,3.88-19.88,4.1-28.47.06-2.51,0-4.92-2-6.43-3.06-2.39-10.77-2.55-14.52-1.44a4.08,4.08,0,0,0-3.21,3c-.73,2.53-.21,6.84-.62,11.46-.58,6.52-3,13.66-4.88,16A3.72,3.72,0,0,1,47.08,170c-2.09.83-6.23,1.53-10.25,4.09-5.48,3.49-10.75,10.44-16.46,15.13-2.93,2.4-6,4.21-7.45,5.27a3.1,3.1,0,0,0-1.52,1.86c-1.06,3.45-1.06,14.8-1.65,25-1.13,19.49-4.44,34.74-6.89,52.41-1.79,13-3.13,27.22-2.81,38.14.14,4.88.61,9.1,3,13.68,4.12,8,14,17.19,21.9,25.53,6.82,7.2,12.13,13.79,12.81,16.53a.84.84,0,0,1-.3,1c-.71.61-2.73,1.38-3.64,2.84-1.6,2.61.33,7.42.52,9.18.09.84-.21,1-.46,1.49-1.27,2.5-1.21,13.75-.43,20.92,1.34,12.28,4.78,12.62,6.28,13.87,2.24,1.86.13,5.73,12.69,15.85,10.26,8.26,30.3,20.7,51.57,33,12.07,7,24.53,13.94,37.08,18,14.28,4.63,28.69,5.54,56.71,9.4,8.92,1.23,19.21,2.75,28.15,3.26,8.17.45,15.22.06,19.07-2.2,3.26-1.9,4.24-5.14,6.55-6.6,3.44-2.17,9.85-.39,12.38-.33,1.14,0,1.5-.29,1.68-1.26.48-2.51-.17-9.37-.67-16-1.3-17.56-1.48-33.75,1.21-38.57a4.12,4.12,0,0,1,1.68-1.68c1.73-1,4.88-1.88,8.68-2.66,10.74-2.19,26.69-3.57,39.75-10.53,3.39-1.81,6.58-4,5.4-5.45C320.22,409.36,312.59,408.64,308.07,407.87Zm-28.88-95.78c-4.14,4.32-7.19,8.4-9.33,9.51a1.78,1.78,0,0,1-1.2.26c-1.63-.39-1.33-5.18-1.32-11.36v-.26a6.93,6.93,0,0,1,1.11-3.48,1.67,1.67,0,0,1,1.76-.45,71,71,0,0,1,8.16,1.84c1.19.31,2.52.67,2.6,1.39S280.09,311.15,279.19,312.09Zm-39.3-35.32a62.65,62.65,0,0,0,2-8.61c1-4.92,2.83-10.43,5.85-14.34,3.68-4.77,9.13-7.13,15.35-7.85,10.76-1.24,23.84,2.45,31,6.7,5,3,7.16,6.17,12.69,12,.83.88,1.74,1.83,1.48,2.83a7.37,7.37,0,0,1-1.58,2.15,13.72,13.72,0,0,0-2.89,6.24,43.1,43.1,0,0,0-1.1,12.34,8.6,8.6,0,0,1-.27,3.51,3.8,3.8,0,0,1-2,2c-2.54,1.27-6.78.94-10.32,1.5-4.94.78-8.53,3.28-12.64,3.13-3.29-.12-6.93-2-9.84-4.09-5.21-3.82-8.11-8.58-13.74-11.63a20.59,20.59,0,0,0-11.58-2.52c-1.48.16-2.94.52-3.15-.33A7.56,7.56,0,0,1,239.89,276.77Zm-196-81.42c-1.1,17.95-2.13,31.32-3.45,46.72-1.63,19-3.69,41-3.43,58.89.16,11.58,1.3,21.44,3.92,37.76.43,2.62.89,5.41-.26,6.46-.92.83-2.85.55-4.49-.11-4.91-2-7.2-7.5-10.93-11.5s-8.57-6.33-10.54-8.7a5.54,5.54,0,0,1-1.21-3.46,92.38,92.38,0,0,1,.76-13.36c.74-6.9,1.5-11.72,1.67-17.2.29-9.41-1.16-20.74.06-28.63.33-2.13.86-4,1.33-6.15.78-3.53,1.42-7.76,2.35-11.9,1.74-7.76,4.5-15.2,6.92-24.45.92-3.54,1.8-7.34,1.4-9.85-.32-2.06-1.49-3.25-1-5a12.56,12.56,0,0,1,2.56-4c3.25-3.91,7.23-7.66,11.08-9.4,1.21-.55,2.42-.9,3-.21S44,193.67,43.89,195.36Zm82.68,266.73a13.68,13.68,0,0,1-2.41-.36,1.72,1.72,0,0,1-1.48-1.91,4.16,4.16,0,0,1,.4-2c1.09-1.7,4.68,1.39,5.75,3C129.65,462,129,462.27,126.57,462.08Z"/><path class="cls-1" d="M75.89,37.61A145.58,145.58,0,0,0,45.83,86.36c-1.89,5-3.54,10.15-3.49,15.19A25.92,25.92,0,0,0,49.1,118.2c8.68,9.87,24.61,15.06,35,22.32a8,8,0,0,1,3.13,3.24c.56,1.44.26,3.3,0,5.15-3,18.45-6.14,35.51-9,51.93-4.18,24.25-7.77,47.13-3.18,79.88.14,1,.28,2-.57,2.37a12.71,12.71,0,0,1-3.17.16c-3.48.11-5.1,2-5.35,3.69-.75,5.2,11.13,8.9,21,10.27,14,1.94,24-.77,21.59-5.23-1.21-2.22-5.48-4.87-9.69-6.6-1.91-.78-3.81-1.37-5.14-2.51-2.76-2.36-3.12-7.07-3.45-11.56-1.22-17-2-30.91-1.33-45.43,1.06-24.49,6-50.65,10.68-76,0-.26.1-.52.16-.76.49-1.77,2-2.43,3.61-2.81,6.53-1.5,15.8,1.24,23.85,2.59,10.32,1.71,18.62,1.11,29.94,2.4,1.19.14,2.41.3,2.85.91s.11,1.6-.19,2.6c-8.35,27.83-17.06,52.16-24,77.36a423.44,423.44,0,0,0-14.36,78.74c-.17,1.9-.32,3.82-1.58,4.88-1.62,1.36-5,1.3-6.72,2.53-2.07,1.51-1.45,5-.06,6.64,2,2.36,5.48,1.13,8.88,1.68,5.8.93,11.31,7,19.75,6.9,4.6-.06,10.06-2,10.87-5,.56-2.18-1.17-4.94-3.27-6.5-2.35-1.74-5.15-2-7.18-3.08a7.2,7.2,0,0,1-3-3.39c-1.34-2.87-1.56-7-1.63-11a110.45,110.45,0,0,1,3.31-30.15c1.77-6.87,4.22-13.51,6.43-20.86,6.7-22.33,11.22-51.26,17-70.56,2.51-8.37,5.26-14.93,9.09-25.35a5.85,5.85,0,0,1,1.48-2.59,6.34,6.34,0,0,1,3.44-.9,56.59,56.59,0,0,1,8.54,0c11.66.82,25,4.7,39.06,6.8,2.73.41,5.49.75,8.28,1,6.21.52,12.54.54,16.36,1.7,2.28.69,3.66,1.79,5.87,3.52,4.89,3.82,13.83,10.7,23,13.71,7.14,2.34,14.43,2.34,17.21-1.6a4.91,4.91,0,0,0,1-3.8c-.71-2.3-5.26-1.55-10-3-5.91-1.75-12.18-6.79-11.77-9.66a2.13,2.13,0,0,1,.44-1c2-2.49,9.3-1.84,15.18-3.58,9.78-2.89,15.58-12.4,16.61-23.56,1.45-15.83-6.71-35-20.5-34.73-4.62.09-9.87,2.36-10.47.19a2.48,2.48,0,0,1,.07-1.31c.49-1.7,2.39-3.07,4.71-4,3.52-1.4,8-1.79,10.93-5.83,1.5-2.08,2.6-5.12,1.51-6.33-2.25-2.47-13.82,2.89-15.07,2.19-.17-.1-.15-.3-.06-.61a38.58,38.58,0,0,0,1.67-4.62C282,74.11,277.62,69.32,273,65c-14.56-13.64-31.46-22.86-47.11-30.36l-2.72-1.3c-17.37-8.2-32.88-14.45-55.76-18.41-15-2.59-33.16-4.2-29.2,4.25a20.31,20.31,0,0,0,11,9.25c5.64,1.76,11.84-.31,10.78,1.75-.67,1.29-4.23,4.23-7.43,7C139,48.86,131.83,57.59,124.81,67.67a302.76,302.76,0,0,0-29.55,54.09c-.5,1.18-1,2.38-2.09,2.82-1.54.63-4.25-.24-6.7-1.12-18.93-6.85-22.17-14.57-30.24-18.79a3.4,3.4,0,0,1-1.64-1.26c-.55-1.2.63-3.5,1.77-5.72C66.71,77.52,73.21,64.21,89,46.92,102.91,31.64,124.07,13.25,137,9.34c5-1.49,8.7-.87,9.24-5a3.41,3.41,0,0,0-.93-3.21,7,7,0,0,0-3.42-1C136.15-.49,130.55,1.68,125.16,4,105.91,12.48,89.43,23.31,75.89,37.61ZM281,118c1.6-1.87,4.86-3.64,7-3.4a3.14,3.14,0,0,1,2.5,2.07c1.43,3,1.72,9.21,0,11.46a2.59,2.59,0,0,1-2.84.91c-2.84-.62-6.72-4.3-7.57-7.16A3.89,3.89,0,0,1,281,118ZM116.07,104.48c8.72-19.61,15.48-34,28-48.73,7.81-9.22,17.85-18.6,23.23-22.36,3.14-2.19,4.69-2.47,8.36-2.06,7.26.8,22.81,4.27,39,11.39,3.75,1.65,7.53,3.5,11.28,5.45,17,8.87,33.5,19.94,43.66,24.86a3.36,3.36,0,0,1,1.78,1.38c1.09,2.17-1,8,1,10,1,1,3,1.07,3.77,1.38,1.63.65-2.19,2.27-5.68,4.29-11.18,6.5-18.86,17.17-23.59,27.92-4.53,10.29-6.35,20.66-9.58,25.23a6,6,0,0,1-3.17,2.44c-1.93.65-4.78.68-8.22.41-5.29-.42-12-1.57-19.06-2.39-10.74-1.26-22.26-1.74-24.81-3.7a1.81,1.81,0,0,1-.63-1.88c.73-7.41,15-37,27.87-54.77,6.85-9.48,13.32-15.62,16.63-19.55V57a5.88,5.88,0,0,0-1.82-.64c-8.44-1.36-22.16,18.67-34,39.49-10.53,18.55-19.56,37.73-23.11,41.9a2.61,2.61,0,0,1-2.23,1.05c-4.72.29-21.27-2.71-35.24-4.23-10.32-1.12-19.24-1.43-21.66-3.34a2.07,2.07,0,0,1-.81-1.74C106.85,125.38,111.7,114.27,116.07,104.48Z"/><path class="cls-1" d="M102.87,370.06a4.43,4.43,0,0,0-2.3,4.31c.43,3,4.79,5.13,9.56,6.75,5.88,2,12.37,3.21,15.36,1.52a3.25,3.25,0,0,0,1.76-2.66c.09-2.81-4.09-5.89-10-8.26C112.27,369.74,106.08,368.26,102.87,370.06Z"/><path class="cls-1" d="M92.11,359.55c-5.06-4.37-9.85-6.17-15.2-6.15-2.67,0-5.48.47-6.14,2-.76,1.78,1.37,5,4.15,7.2,4.18,3.3,9.84,4.3,15.42,4.8,3.27.29,6.51.41,6.9-1S94.84,361.92,92.11,359.55Z"/><path class="cls-1" d="M35.37,65.48c1,1.71.82,3.25,2.2,4.07,1.13.67,3.33.85,4.12,0,.61-.67.4-2,.35-3.25-.22-6,3-11.88,6.45-17C51.27,45,54.17,41.36,56,37.77c1.14-2.25,1.83-4.47,3.47-6.23,4.14-4.44,14.37-6,22.88-8.65,2.39-.75,4.65-1.6,6-3.65,1.67-2.59,1.88-7.08.24-9.17-1.32-1.68-3.82-1.82-6.44-1.64a45.93,45.93,0,0,0-23.38,8.81c-5.59,4.27-9,9.6-13.36,9.57a1.83,1.83,0,0,1-1.71-.7c-.84-1.6,1.91-6.58,3.84-10.6C51,8.14,51.8,4,50.07,2.34,48.69,1,45.7,1.23,42.33,2.59c-6.42,2.6-14.26,9.38-18.13,19-2.74,6.82-3.48,15.07-4.71,18.45a11.68,11.68,0,0,0-.81,2.26c-.46,2.77,1.65,8.55,6.68,13.66C28.84,59.5,33.72,62.73,35.37,65.48Z"/><path class="cls-1" d="M41.22,437.48a6.18,6.18,0,0,0,4-3.7,6.6,6.6,0,0,0-1.85-7c-2.72-2.54-7.49-2.85-10.75-1.4a4,4,0,0,0-2,1.61c-.84,1.7,1.34,4.24,3.5,6.5C36.43,435.93,38.77,438,41.22,437.48Z"/></g></g></svg>